M48
; DRILL file {KiCad 7.0.10} date Thu Mar 21 10:58:15 2024
; FORMAT={-:-/ absolute / inch / decimal}
; #@! TF.CreationDate,2024-03-21T10:58:15-07:00
; #@! TF.GenerationSoftware,Kicad,Pcbnew,7.0.10
; #@! TF.FileFunction,Plated,1,2,PTH
FMAT,2
INCH
; #@! TA.AperFunction,Plated,PTH,ViaDrill
T1C0.0157
; #@! TA.AperFunction,Plated,PTH,ComponentDrill
T2C0.0197
; #@! TA.AperFunction,Plated,PTH,ComponentDrill
T3C0.0236
; #@! TA.AperFunction,Plated,PTH,ComponentDrill
T4C0.0276
; #@! TA.AperFunction,Plated,PTH,ComponentDrill
T5C0.0290
; #@! TA.AperFunction,Plated,PTH,ComponentDrill
T6C0.0315
; #@! TA.AperFunction,Plated,PTH,ComponentDrill
T7C0.0320
; #@! TA.AperFunction,Plated,PTH,ComponentDrill
T8C0.0354
; #@! TA.AperFunction,Plated,PTH,ComponentDrill
T9C0.0394
; #@! TA.AperFunction,Plated,PTH,ComponentDrill
T10C0.0591
%
G90
G05
T1
X2.352Y-5.1164
X2.492Y-4.9664
X2.7043Y-1.7201
X2.71Y-5.005
X2.882Y-5.1864
X3.1683Y-1.3667
X4.58Y-4.995
X4.67Y-1.995
X4.6925Y-5.3681
X4.8661Y-4.83
X4.95Y-2.265
X4.95Y-2.4403
X4.9819Y-5.2886
X5.2Y-2.25
X5.265Y-2.14
X5.3623Y-2.1327
X5.41Y-3.167
X5.4335Y-2.0035
X5.4443Y-1.731
X5.459Y-3.049
X5.46Y-2.785
X5.46Y-3.1717
X5.488Y-3.6635
X5.51Y-3.419
X5.5553Y-3.6873
X5.556Y-3.1717
X5.56Y-4.685
X5.5828Y-3.2932
X5.5863Y-2.6913
X5.645Y-2.9
X5.65Y-4.975
X5.655Y-2.045
X5.655Y-2.49
X5.69Y-2.4585
X5.704Y-1.9381
X5.761Y-2.83
X5.82Y-4.98
X5.855Y-4.73
X5.86Y-4.985
X6.08Y-2.398
X6.1331Y-1.6201
X6.18Y-2.3983
X6.22Y-1.62
X6.28Y-2.3983
X6.2976Y-3.4965
X6.32Y-1.61
X6.38Y-2.3983
X6.425Y-1.595
X6.48Y-2.3983
X6.58Y-2.3983
X6.5985Y-3.4738
X6.68Y-2.3983
X6.7213Y-3.4738
X6.76Y-3.5785
X6.7799Y-3.4965
X6.78Y-2.125
X6.78Y-2.3983
X6.79Y-3.265
X6.8366Y-3.5545
X6.8465Y-2.3983
X6.875Y-2.5135
X6.9142Y-2.229
X6.975Y-3.485
X6.99Y-2.2
X7.08Y-3.105
X7.14Y-2.87
X7.2Y-1.925
X7.2218Y-2.3292
X7.225Y-2.537
X7.28Y-1.92
X7.4998Y-1.5652
X7.625Y-2.87
X7.6366Y-2.5042
X7.64Y-2.465
X7.642Y-2.3592
X7.643Y-2.421
X7.6488Y-1.7535
X7.73Y-3.472
X7.755Y-2.325
X7.755Y-2.425
X7.756Y-2.525
X7.83Y-3.472
X7.93Y-3.472
X8.03Y-3.487
X8.36Y-4.76
X8.36Y-4.86
X8.52Y-4.7
X8.52Y-4.92
T3
X2.3513Y-5.3564
X2.43Y-5.3564
X4.5013Y-5.375
X4.58Y-5.375
X5.2502Y-4.7454
X5.3289Y-4.7454
T4
X5.88Y-2.565
X5.88Y-2.865
X5.89Y-3.655
X5.89Y-3.955
X5.98Y-2.565
X5.98Y-2.865
X5.99Y-3.655
X5.99Y-3.955
X6.08Y-2.565
X6.08Y-2.865
X6.09Y-3.655
X6.09Y-3.955
X6.18Y-2.565
X6.18Y-2.865
X6.19Y-3.655
X6.19Y-3.955
X6.28Y-2.565
X6.28Y-2.865
X6.29Y-3.655
X6.29Y-3.955
X6.38Y-2.565
X6.38Y-2.865
X6.39Y-3.655
X6.39Y-3.955
X6.48Y-2.565
X6.48Y-2.865
X6.49Y-3.655
X6.49Y-3.955
X6.58Y-2.565
X6.58Y-2.865
X6.59Y-3.655
X6.59Y-3.955
X6.68Y-2.565
X6.68Y-2.865
X6.69Y-3.655
X6.69Y-3.955
X6.78Y-2.565
X6.78Y-2.865
X6.79Y-3.655
X6.79Y-3.955
X7.13Y-3.655
X7.13Y-3.955
X7.23Y-3.655
X7.23Y-3.955
X7.33Y-3.655
X7.33Y-3.955
X7.43Y-3.655
X7.43Y-3.955
X7.53Y-3.655
X7.53Y-3.955
X7.63Y-3.655
X7.63Y-3.955
X7.73Y-3.655
X7.73Y-3.955
X7.83Y-3.655
X7.83Y-3.955
X7.93Y-3.655
X7.93Y-3.955
X8.03Y-3.655
X8.03Y-3.955
T5
X7.1Y-1.525
X7.1Y-1.625
X7.1Y-1.725
X7.1Y-1.825
X7.1Y-1.925
X7.1Y-2.025
X7.1Y-2.125
X7.1Y-2.225
X7.1Y-2.325
X7.1Y-2.425
X7.1Y-2.525
X7.1Y-2.625
X7.1Y-2.725
X7.1Y-2.825
X7.1Y-2.925
X7.1Y-3.025
X7.7Y-1.525
X7.7Y-1.625
X7.7Y-1.725
X7.7Y-1.825
X7.7Y-1.925
X7.7Y-2.025
X7.7Y-2.125
X7.7Y-2.225
X7.7Y-2.325
X7.7Y-2.425
X7.7Y-2.525
X7.7Y-2.625
X7.7Y-2.725
X7.7Y-2.825
X7.7Y-2.925
X7.7Y-3.025
X7.92Y-1.53
X7.92Y-1.63
X7.92Y-1.73
X7.92Y-1.83
X7.92Y-1.93
X7.92Y-2.03
X7.92Y-2.13
X7.92Y-2.23
X7.92Y-2.33
X7.92Y-2.43
X7.92Y-2.53
X7.92Y-2.63
X7.92Y-2.73
X7.92Y-2.83
X7.92Y-2.93
X7.92Y-3.03
X8.52Y-1.53
X8.52Y-1.63
X8.52Y-1.73
X8.52Y-1.83
X8.52Y-1.93
X8.52Y-2.03
X8.52Y-2.13
X8.52Y-2.23
X8.52Y-2.33
X8.52Y-2.43
X8.52Y-2.53
X8.52Y-2.63
X8.52Y-2.73
X8.52Y-2.83
X8.52Y-2.93
X8.52Y-3.03
T6
X1.891Y-4.2072
X1.95Y-4.5025
X2.0091Y-4.2072
X2.0681Y-4.5025
X2.44Y-4.8864
X2.44Y-5.1864
X2.54Y-4.8864
X2.54Y-5.1864
X2.64Y-4.8864
X2.64Y-5.1864
X2.672Y-5.3732
X2.74Y-4.8864
X2.74Y-5.1864
X2.8823Y-4.8575
X2.8823Y-5.0543
X2.972Y-5.3732
X3.325Y-5.0
X3.625Y-5.0
X4.0Y-4.875
X4.3Y-4.875
X4.4781Y-4.9154
X4.4781Y-5.2154
X4.5781Y-4.9154
X4.5781Y-5.2154
X4.5878Y-4.5025
X4.6469Y-4.2072
X4.6781Y-4.9154
X4.6781Y-5.2154
X4.7059Y-4.5025
X4.765Y-4.2072
X4.7781Y-4.9154
X4.7781Y-5.2154
X4.795Y-2.035
X4.795Y-2.335
X4.8Y-1.525
X4.8Y-1.825
X4.8063Y-4.7413
X4.81Y-2.515
X4.81Y-2.815
X4.81Y-2.99
X4.81Y-3.29
X4.81Y-3.545
X4.81Y-3.845
X4.8205Y-5.3874
X4.895Y-2.035
X4.895Y-2.335
X4.9Y-1.525
X4.9Y-1.825
X4.91Y-2.515
X4.91Y-2.815
X4.91Y-2.99
X4.91Y-3.29
X4.91Y-3.545
X4.91Y-3.845
X4.916Y-4.262
X4.9161Y-4.4469
X4.995Y-2.035
X4.995Y-2.335
X5.0Y-1.525
X5.0Y-1.825
X5.01Y-2.515
X5.01Y-2.815
X5.01Y-2.99
X5.01Y-3.29
X5.01Y-3.545
X5.01Y-3.845
X5.0173Y-5.3874
X5.08Y-4.915
X5.08Y-5.215
X5.095Y-2.035
X5.095Y-2.335
X5.1Y-1.525
X5.1Y-1.825
X5.1063Y-4.7413
X5.11Y-2.515
X5.11Y-2.815
X5.11Y-2.99
X5.11Y-3.29
X5.11Y-3.545
X5.11Y-3.845
X5.18Y-4.915
X5.18Y-5.215
X5.195Y-2.035
X5.195Y-2.335
X5.2Y-1.525
X5.2Y-1.825
X5.21Y-2.515
X5.21Y-2.815
X5.21Y-2.99
X5.21Y-3.29
X5.21Y-3.545
X5.21Y-3.845
X5.216Y-4.262
X5.2161Y-4.4469
X5.28Y-4.915
X5.28Y-5.215
X5.295Y-2.035
X5.295Y-2.335
X5.3Y-1.525
X5.3Y-1.825
X5.31Y-2.515
X5.31Y-2.815
X5.31Y-2.99
X5.31Y-3.29
X5.31Y-3.545
X5.31Y-3.845
X5.38Y-4.915
X5.38Y-5.215
X5.395Y-2.035
X5.395Y-2.335
X5.4Y-1.525
X5.4Y-1.825
X5.41Y-2.515
X5.41Y-2.815
X5.41Y-2.99
X5.41Y-3.29
X5.41Y-3.545
X5.41Y-3.845
X5.48Y-4.915
X5.48Y-5.215
X5.495Y-2.035
X5.495Y-2.335
X5.5Y-1.525
X5.5Y-1.825
X5.51Y-2.515
X5.51Y-2.815
X5.51Y-2.99
X5.51Y-3.29
X5.51Y-3.545
X5.51Y-3.845
X5.58Y-4.915
X5.58Y-5.215
X5.68Y-4.915
X5.68Y-5.215
X5.88Y-3.01
X5.9Y-4.105
X5.98Y-3.01
X6.0Y-4.105
X6.0783Y-4.9382
X6.0783Y-5.135
X6.08Y-3.01
X6.1Y-4.105
X6.1571Y-4.9382
X6.1571Y-5.135
X6.18Y-3.01
X6.1898Y-4.7264
X6.2Y-4.105
X6.2358Y-4.9382
X6.2358Y-5.135
X6.28Y-3.01
X6.3Y-4.105
X6.38Y-3.01
X6.4Y-4.105
X6.48Y-3.01
X6.4898Y-4.7264
X6.5Y-4.105
X6.58Y-3.01
X6.6Y-4.105
X6.68Y-3.01
X6.7Y-4.105
X6.78Y-3.01
X6.8Y-4.105
X6.88Y-3.01
X6.9Y-4.105
X7.1394Y-4.105
X7.2394Y-4.105
X7.3394Y-4.105
X7.4394Y-4.105
X7.5394Y-4.105
X7.6394Y-4.105
X7.7394Y-4.105
X7.8394Y-4.105
X7.9394Y-4.105
X7.9698Y-4.6101
X7.9698Y-5.0301
X7.9698Y-5.2501
X8.0394Y-4.105
X8.1394Y-4.105
X8.2698Y-4.6101
X8.2698Y-5.0301
X8.2698Y-5.2501
X8.2814Y-4.3901
X8.4782Y-4.3901
X8.5Y-3.35
X8.5Y-3.65
T7
X2.175Y-1.25
X2.275Y-1.35
X2.375Y-1.25
X2.7Y-1.2486
X2.8Y-1.3486
X2.9Y-1.2486
T8
X3.022Y-5.0368
X3.122Y-5.0368
X4.125Y-5.0654
X4.225Y-5.0654
X8.5Y-3.8902
X8.5Y-3.9902
X8.5Y-5.2
X8.6Y-5.2
T9
X1.9705Y-4.95
X1.9705Y-5.1272
X2.2264Y-4.95
X2.2264Y-5.1272
X2.305Y-1.625
X2.405Y-1.625
X2.505Y-1.625
X2.605Y-1.625
X2.705Y-1.625
X2.805Y-1.625
X2.905Y-1.625
X3.005Y-1.625
X3.105Y-1.625
X3.205Y-1.625
X3.305Y-1.625
X3.405Y-1.625
X3.505Y-1.625
X3.605Y-1.625
X3.705Y-1.625
X3.805Y-1.625
X6.5224Y-4.9469
X6.5224Y-5.124
X6.7783Y-4.9469
X6.7783Y-5.124
T10
X2.8949Y-4.5202
X3.5642Y-4.1895
T2
G00X8.4462Y-4.6398
M15
G01X8.4738Y-4.6398
M16
G05
G00X8.4462Y-4.98
M15
G01X8.4738Y-4.98
M16
G05
G00X8.5958Y-4.6398
M15
G01X8.6234Y-4.6398
M16
G05
G00X8.5958Y-4.98
M15
G01X8.6234Y-4.98
M16
G05
M30
