%TF.GenerationSoftware,KiCad,Pcbnew,7.0.10*%
%TF.CreationDate,2024-03-06T21:26:23-08:00*%
%TF.ProjectId,cpu,6370752e-6b69-4636-9164-5f7063625858,1.0*%
%TF.SameCoordinates,Original*%
%TF.FileFunction,Other,Comment*%
%FSLAX46Y46*%
G04 Gerber Fmt 4.6, Leading zero omitted, Abs format (unit mm)*
G04 Created by KiCad (PCBNEW 7.0.10) date 2024-03-06 21:26:23*
%MOMM*%
%LPD*%
G01*
G04 APERTURE LIST*
%ADD10C,0.150000*%
G04 APERTURE END LIST*
D10*
X127175190Y-150815819D02*
X126603762Y-150815819D01*
X126889476Y-150815819D02*
X126889476Y-149815819D01*
X126889476Y-149815819D02*
X126794238Y-149958676D01*
X126794238Y-149958676D02*
X126699000Y-150053914D01*
X126699000Y-150053914D02*
X126603762Y-150101533D01*
X127508524Y-149815819D02*
X128175190Y-149815819D01*
X128175190Y-149815819D02*
X127746619Y-150815819D01*
X128603762Y-150815819D02*
X128794238Y-150815819D01*
X128794238Y-150815819D02*
X128889476Y-150768200D01*
X128889476Y-150768200D02*
X128937095Y-150720580D01*
X128937095Y-150720580D02*
X129032333Y-150577723D01*
X129032333Y-150577723D02*
X129079952Y-150387247D01*
X129079952Y-150387247D02*
X129079952Y-150006295D01*
X129079952Y-150006295D02*
X129032333Y-149911057D01*
X129032333Y-149911057D02*
X128984714Y-149863438D01*
X128984714Y-149863438D02*
X128889476Y-149815819D01*
X128889476Y-149815819D02*
X128699000Y-149815819D01*
X128699000Y-149815819D02*
X128603762Y-149863438D01*
X128603762Y-149863438D02*
X128556143Y-149911057D01*
X128556143Y-149911057D02*
X128508524Y-150006295D01*
X128508524Y-150006295D02*
X128508524Y-150244390D01*
X128508524Y-150244390D02*
X128556143Y-150339628D01*
X128556143Y-150339628D02*
X128603762Y-150387247D01*
X128603762Y-150387247D02*
X128699000Y-150434866D01*
X128699000Y-150434866D02*
X128889476Y-150434866D01*
X128889476Y-150434866D02*
X128984714Y-150387247D01*
X128984714Y-150387247D02*
X129032333Y-150339628D01*
X129032333Y-150339628D02*
X129079952Y-150244390D01*
X129508524Y-150720580D02*
X129556143Y-150768200D01*
X129556143Y-150768200D02*
X129508524Y-150815819D01*
X129508524Y-150815819D02*
X129460905Y-150768200D01*
X129460905Y-150768200D02*
X129508524Y-150720580D01*
X129508524Y-150720580D02*
X129508524Y-150815819D01*
X130460904Y-149815819D02*
X129984714Y-149815819D01*
X129984714Y-149815819D02*
X129937095Y-150292009D01*
X129937095Y-150292009D02*
X129984714Y-150244390D01*
X129984714Y-150244390D02*
X130079952Y-150196771D01*
X130079952Y-150196771D02*
X130318047Y-150196771D01*
X130318047Y-150196771D02*
X130413285Y-150244390D01*
X130413285Y-150244390D02*
X130460904Y-150292009D01*
X130460904Y-150292009D02*
X130508523Y-150387247D01*
X130508523Y-150387247D02*
X130508523Y-150625342D01*
X130508523Y-150625342D02*
X130460904Y-150720580D01*
X130460904Y-150720580D02*
X130413285Y-150768200D01*
X130413285Y-150768200D02*
X130318047Y-150815819D01*
X130318047Y-150815819D02*
X130079952Y-150815819D01*
X130079952Y-150815819D02*
X129984714Y-150768200D01*
X129984714Y-150768200D02*
X129937095Y-150720580D01*
X130841857Y-149815819D02*
X131508523Y-149815819D01*
X131508523Y-149815819D02*
X131079952Y-150815819D01*
X132032333Y-150244390D02*
X131937095Y-150196771D01*
X131937095Y-150196771D02*
X131889476Y-150149152D01*
X131889476Y-150149152D02*
X131841857Y-150053914D01*
X131841857Y-150053914D02*
X131841857Y-150006295D01*
X131841857Y-150006295D02*
X131889476Y-149911057D01*
X131889476Y-149911057D02*
X131937095Y-149863438D01*
X131937095Y-149863438D02*
X132032333Y-149815819D01*
X132032333Y-149815819D02*
X132222809Y-149815819D01*
X132222809Y-149815819D02*
X132318047Y-149863438D01*
X132318047Y-149863438D02*
X132365666Y-149911057D01*
X132365666Y-149911057D02*
X132413285Y-150006295D01*
X132413285Y-150006295D02*
X132413285Y-150053914D01*
X132413285Y-150053914D02*
X132365666Y-150149152D01*
X132365666Y-150149152D02*
X132318047Y-150196771D01*
X132318047Y-150196771D02*
X132222809Y-150244390D01*
X132222809Y-150244390D02*
X132032333Y-150244390D01*
X132032333Y-150244390D02*
X131937095Y-150292009D01*
X131937095Y-150292009D02*
X131889476Y-150339628D01*
X131889476Y-150339628D02*
X131841857Y-150434866D01*
X131841857Y-150434866D02*
X131841857Y-150625342D01*
X131841857Y-150625342D02*
X131889476Y-150720580D01*
X131889476Y-150720580D02*
X131937095Y-150768200D01*
X131937095Y-150768200D02*
X132032333Y-150815819D01*
X132032333Y-150815819D02*
X132222809Y-150815819D01*
X132222809Y-150815819D02*
X132318047Y-150768200D01*
X132318047Y-150768200D02*
X132365666Y-150720580D01*
X132365666Y-150720580D02*
X132413285Y-150625342D01*
X132413285Y-150625342D02*
X132413285Y-150434866D01*
X132413285Y-150434866D02*
X132365666Y-150339628D01*
X132365666Y-150339628D02*
X132318047Y-150292009D01*
X132318047Y-150292009D02*
X132222809Y-150244390D01*
X133032333Y-149815819D02*
X133127571Y-149815819D01*
X133127571Y-149815819D02*
X133222809Y-149863438D01*
X133222809Y-149863438D02*
X133270428Y-149911057D01*
X133270428Y-149911057D02*
X133318047Y-150006295D01*
X133318047Y-150006295D02*
X133365666Y-150196771D01*
X133365666Y-150196771D02*
X133365666Y-150434866D01*
X133365666Y-150434866D02*
X133318047Y-150625342D01*
X133318047Y-150625342D02*
X133270428Y-150720580D01*
X133270428Y-150720580D02*
X133222809Y-150768200D01*
X133222809Y-150768200D02*
X133127571Y-150815819D01*
X133127571Y-150815819D02*
X133032333Y-150815819D01*
X133032333Y-150815819D02*
X132937095Y-150768200D01*
X132937095Y-150768200D02*
X132889476Y-150720580D01*
X132889476Y-150720580D02*
X132841857Y-150625342D01*
X132841857Y-150625342D02*
X132794238Y-150434866D01*
X132794238Y-150434866D02*
X132794238Y-150196771D01*
X132794238Y-150196771D02*
X132841857Y-150006295D01*
X132841857Y-150006295D02*
X132889476Y-149911057D01*
X132889476Y-149911057D02*
X132937095Y-149863438D01*
X132937095Y-149863438D02*
X133032333Y-149815819D01*
X134556143Y-150815819D02*
X134556143Y-150149152D01*
X134556143Y-150244390D02*
X134603762Y-150196771D01*
X134603762Y-150196771D02*
X134699000Y-150149152D01*
X134699000Y-150149152D02*
X134841857Y-150149152D01*
X134841857Y-150149152D02*
X134937095Y-150196771D01*
X134937095Y-150196771D02*
X134984714Y-150292009D01*
X134984714Y-150292009D02*
X134984714Y-150815819D01*
X134984714Y-150292009D02*
X135032333Y-150196771D01*
X135032333Y-150196771D02*
X135127571Y-150149152D01*
X135127571Y-150149152D02*
X135270428Y-150149152D01*
X135270428Y-150149152D02*
X135365667Y-150196771D01*
X135365667Y-150196771D02*
X135413286Y-150292009D01*
X135413286Y-150292009D02*
X135413286Y-150815819D01*
X135889476Y-150815819D02*
X135889476Y-150149152D01*
X135889476Y-150244390D02*
X135937095Y-150196771D01*
X135937095Y-150196771D02*
X136032333Y-150149152D01*
X136032333Y-150149152D02*
X136175190Y-150149152D01*
X136175190Y-150149152D02*
X136270428Y-150196771D01*
X136270428Y-150196771D02*
X136318047Y-150292009D01*
X136318047Y-150292009D02*
X136318047Y-150815819D01*
X136318047Y-150292009D02*
X136365666Y-150196771D01*
X136365666Y-150196771D02*
X136460904Y-150149152D01*
X136460904Y-150149152D02*
X136603761Y-150149152D01*
X136603761Y-150149152D02*
X136699000Y-150196771D01*
X136699000Y-150196771D02*
X136746619Y-150292009D01*
X136746619Y-150292009D02*
X136746619Y-150815819D01*
X221488000Y-145153000D02*
X221488000Y-152097420D01*
X41910000Y-145153000D02*
X41910000Y-152097420D01*
X221488000Y-151511000D02*
X41910000Y-151511000D01*
X221488000Y-151511000D02*
X41910000Y-151511000D01*
X221488000Y-151511000D02*
X220361496Y-152097421D01*
X221488000Y-151511000D02*
X220361496Y-150924579D01*
X41910000Y-151511000D02*
X43036504Y-150924579D01*
X41910000Y-151511000D02*
X43036504Y-152097421D01*
X229936819Y-89740809D02*
X229936819Y-90312237D01*
X229936819Y-90026523D02*
X228936819Y-90026523D01*
X228936819Y-90026523D02*
X229079676Y-90121761D01*
X229079676Y-90121761D02*
X229174914Y-90216999D01*
X229174914Y-90216999D02*
X229222533Y-90312237D01*
X229936819Y-88788428D02*
X229936819Y-89359856D01*
X229936819Y-89074142D02*
X228936819Y-89074142D01*
X228936819Y-89074142D02*
X229079676Y-89169380D01*
X229079676Y-89169380D02*
X229174914Y-89264618D01*
X229174914Y-89264618D02*
X229222533Y-89359856D01*
X229365390Y-88216999D02*
X229317771Y-88312237D01*
X229317771Y-88312237D02*
X229270152Y-88359856D01*
X229270152Y-88359856D02*
X229174914Y-88407475D01*
X229174914Y-88407475D02*
X229127295Y-88407475D01*
X229127295Y-88407475D02*
X229032057Y-88359856D01*
X229032057Y-88359856D02*
X228984438Y-88312237D01*
X228984438Y-88312237D02*
X228936819Y-88216999D01*
X228936819Y-88216999D02*
X228936819Y-88026523D01*
X228936819Y-88026523D02*
X228984438Y-87931285D01*
X228984438Y-87931285D02*
X229032057Y-87883666D01*
X229032057Y-87883666D02*
X229127295Y-87836047D01*
X229127295Y-87836047D02*
X229174914Y-87836047D01*
X229174914Y-87836047D02*
X229270152Y-87883666D01*
X229270152Y-87883666D02*
X229317771Y-87931285D01*
X229317771Y-87931285D02*
X229365390Y-88026523D01*
X229365390Y-88026523D02*
X229365390Y-88216999D01*
X229365390Y-88216999D02*
X229413009Y-88312237D01*
X229413009Y-88312237D02*
X229460628Y-88359856D01*
X229460628Y-88359856D02*
X229555866Y-88407475D01*
X229555866Y-88407475D02*
X229746342Y-88407475D01*
X229746342Y-88407475D02*
X229841580Y-88359856D01*
X229841580Y-88359856D02*
X229889200Y-88312237D01*
X229889200Y-88312237D02*
X229936819Y-88216999D01*
X229936819Y-88216999D02*
X229936819Y-88026523D01*
X229936819Y-88026523D02*
X229889200Y-87931285D01*
X229889200Y-87931285D02*
X229841580Y-87883666D01*
X229841580Y-87883666D02*
X229746342Y-87836047D01*
X229746342Y-87836047D02*
X229555866Y-87836047D01*
X229555866Y-87836047D02*
X229460628Y-87883666D01*
X229460628Y-87883666D02*
X229413009Y-87931285D01*
X229413009Y-87931285D02*
X229365390Y-88026523D01*
X229841580Y-87407475D02*
X229889200Y-87359856D01*
X229889200Y-87359856D02*
X229936819Y-87407475D01*
X229936819Y-87407475D02*
X229889200Y-87455094D01*
X229889200Y-87455094D02*
X229841580Y-87407475D01*
X229841580Y-87407475D02*
X229936819Y-87407475D01*
X229365390Y-86788428D02*
X229317771Y-86883666D01*
X229317771Y-86883666D02*
X229270152Y-86931285D01*
X229270152Y-86931285D02*
X229174914Y-86978904D01*
X229174914Y-86978904D02*
X229127295Y-86978904D01*
X229127295Y-86978904D02*
X229032057Y-86931285D01*
X229032057Y-86931285D02*
X228984438Y-86883666D01*
X228984438Y-86883666D02*
X228936819Y-86788428D01*
X228936819Y-86788428D02*
X228936819Y-86597952D01*
X228936819Y-86597952D02*
X228984438Y-86502714D01*
X228984438Y-86502714D02*
X229032057Y-86455095D01*
X229032057Y-86455095D02*
X229127295Y-86407476D01*
X229127295Y-86407476D02*
X229174914Y-86407476D01*
X229174914Y-86407476D02*
X229270152Y-86455095D01*
X229270152Y-86455095D02*
X229317771Y-86502714D01*
X229317771Y-86502714D02*
X229365390Y-86597952D01*
X229365390Y-86597952D02*
X229365390Y-86788428D01*
X229365390Y-86788428D02*
X229413009Y-86883666D01*
X229413009Y-86883666D02*
X229460628Y-86931285D01*
X229460628Y-86931285D02*
X229555866Y-86978904D01*
X229555866Y-86978904D02*
X229746342Y-86978904D01*
X229746342Y-86978904D02*
X229841580Y-86931285D01*
X229841580Y-86931285D02*
X229889200Y-86883666D01*
X229889200Y-86883666D02*
X229936819Y-86788428D01*
X229936819Y-86788428D02*
X229936819Y-86597952D01*
X229936819Y-86597952D02*
X229889200Y-86502714D01*
X229889200Y-86502714D02*
X229841580Y-86455095D01*
X229841580Y-86455095D02*
X229746342Y-86407476D01*
X229746342Y-86407476D02*
X229555866Y-86407476D01*
X229555866Y-86407476D02*
X229460628Y-86455095D01*
X229460628Y-86455095D02*
X229413009Y-86502714D01*
X229413009Y-86502714D02*
X229365390Y-86597952D01*
X228936819Y-86074142D02*
X228936819Y-85407476D01*
X228936819Y-85407476D02*
X229936819Y-85836047D01*
X229032057Y-85074142D02*
X228984438Y-85026523D01*
X228984438Y-85026523D02*
X228936819Y-84931285D01*
X228936819Y-84931285D02*
X228936819Y-84693190D01*
X228936819Y-84693190D02*
X228984438Y-84597952D01*
X228984438Y-84597952D02*
X229032057Y-84550333D01*
X229032057Y-84550333D02*
X229127295Y-84502714D01*
X229127295Y-84502714D02*
X229222533Y-84502714D01*
X229222533Y-84502714D02*
X229365390Y-84550333D01*
X229365390Y-84550333D02*
X229936819Y-85121761D01*
X229936819Y-85121761D02*
X229936819Y-84502714D01*
X228936819Y-83883666D02*
X228936819Y-83788428D01*
X228936819Y-83788428D02*
X228984438Y-83693190D01*
X228984438Y-83693190D02*
X229032057Y-83645571D01*
X229032057Y-83645571D02*
X229127295Y-83597952D01*
X229127295Y-83597952D02*
X229317771Y-83550333D01*
X229317771Y-83550333D02*
X229555866Y-83550333D01*
X229555866Y-83550333D02*
X229746342Y-83597952D01*
X229746342Y-83597952D02*
X229841580Y-83645571D01*
X229841580Y-83645571D02*
X229889200Y-83693190D01*
X229889200Y-83693190D02*
X229936819Y-83788428D01*
X229936819Y-83788428D02*
X229936819Y-83883666D01*
X229936819Y-83883666D02*
X229889200Y-83978904D01*
X229889200Y-83978904D02*
X229841580Y-84026523D01*
X229841580Y-84026523D02*
X229746342Y-84074142D01*
X229746342Y-84074142D02*
X229555866Y-84121761D01*
X229555866Y-84121761D02*
X229317771Y-84121761D01*
X229317771Y-84121761D02*
X229127295Y-84074142D01*
X229127295Y-84074142D02*
X229032057Y-84026523D01*
X229032057Y-84026523D02*
X228984438Y-83978904D01*
X228984438Y-83978904D02*
X228936819Y-83883666D01*
X229936819Y-82359856D02*
X229270152Y-82359856D01*
X229365390Y-82359856D02*
X229317771Y-82312237D01*
X229317771Y-82312237D02*
X229270152Y-82216999D01*
X229270152Y-82216999D02*
X229270152Y-82074142D01*
X229270152Y-82074142D02*
X229317771Y-81978904D01*
X229317771Y-81978904D02*
X229413009Y-81931285D01*
X229413009Y-81931285D02*
X229936819Y-81931285D01*
X229413009Y-81931285D02*
X229317771Y-81883666D01*
X229317771Y-81883666D02*
X229270152Y-81788428D01*
X229270152Y-81788428D02*
X229270152Y-81645571D01*
X229270152Y-81645571D02*
X229317771Y-81550332D01*
X229317771Y-81550332D02*
X229413009Y-81502713D01*
X229413009Y-81502713D02*
X229936819Y-81502713D01*
X229936819Y-81026523D02*
X229270152Y-81026523D01*
X229365390Y-81026523D02*
X229317771Y-80978904D01*
X229317771Y-80978904D02*
X229270152Y-80883666D01*
X229270152Y-80883666D02*
X229270152Y-80740809D01*
X229270152Y-80740809D02*
X229317771Y-80645571D01*
X229317771Y-80645571D02*
X229413009Y-80597952D01*
X229413009Y-80597952D02*
X229936819Y-80597952D01*
X229413009Y-80597952D02*
X229317771Y-80550333D01*
X229317771Y-80550333D02*
X229270152Y-80455095D01*
X229270152Y-80455095D02*
X229270152Y-80312238D01*
X229270152Y-80312238D02*
X229317771Y-80216999D01*
X229317771Y-80216999D02*
X229413009Y-80169380D01*
X229413009Y-80169380D02*
X229936819Y-80169380D01*
X221988000Y-144653000D02*
X231218420Y-144653000D01*
X221988000Y-25781000D02*
X231218420Y-25781000D01*
X230632000Y-144653000D02*
X230632000Y-25781000D01*
X230632000Y-144653000D02*
X230632000Y-25781000D01*
X230632000Y-144653000D02*
X230045579Y-143526496D01*
X230632000Y-144653000D02*
X231218421Y-143526496D01*
X230632000Y-25781000D02*
X231218421Y-26907504D01*
X230632000Y-25781000D02*
X230045579Y-26907504D01*
%TO.C,H3*%
X49340000Y-140180000D02*
G75*
G03*
X43940000Y-140180000I-2700000J0D01*
G01*
X43940000Y-140180000D02*
G75*
G03*
X49340000Y-140180000I2700000J0D01*
G01*
%TO.C,H4*%
X219590000Y-140130000D02*
G75*
G03*
X214190000Y-140130000I-2700000J0D01*
G01*
X214190000Y-140130000D02*
G75*
G03*
X219590000Y-140130000I2700000J0D01*
G01*
%TO.C,H1*%
X49270000Y-30100000D02*
G75*
G03*
X43870000Y-30100000I-2700000J0D01*
G01*
X43870000Y-30100000D02*
G75*
G03*
X49270000Y-30100000I2700000J0D01*
G01*
%TO.C,H2*%
X219530000Y-30130000D02*
G75*
G03*
X214130000Y-30130000I-2700000J0D01*
G01*
X214130000Y-30130000D02*
G75*
G03*
X219530000Y-30130000I2700000J0D01*
G01*
%TD*%
M02*
