%TF.GenerationSoftware,KiCad,Pcbnew,7.0.10*%
%TF.CreationDate,2024-03-21T10:58:21-07:00*%
%TF.ProjectId,cpu,6370752e-6b69-4636-9164-5f7063625858,1.1*%
%TF.SameCoordinates,Original*%
%TF.FileFunction,Copper,L1,Top*%
%TF.FilePolarity,Positive*%
%FSLAX46Y46*%
G04 Gerber Fmt 4.6, Leading zero omitted, Abs format (unit mm)*
G04 Created by KiCad (PCBNEW 7.0.10) date 2024-03-21 10:58:21*
%MOMM*%
%LPD*%
G01*
G04 APERTURE LIST*
%TA.AperFunction,ComponentPad*%
%ADD10C,1.600000*%
%TD*%
%TA.AperFunction,ComponentPad*%
%ADD11C,1.300000*%
%TD*%
%TA.AperFunction,ComponentPad*%
%ADD12R,1.600000X1.600000*%
%TD*%
%TA.AperFunction,ComponentPad*%
%ADD13O,1.600000X1.600000*%
%TD*%
%TA.AperFunction,ComponentPad*%
%ADD14C,1.320800*%
%TD*%
%TA.AperFunction,ComponentPad*%
%ADD15R,1.320800X1.320800*%
%TD*%
%TA.AperFunction,ComponentPad*%
%ADD16C,1.244600*%
%TD*%
%TA.AperFunction,SMDPad,CuDef*%
%ADD17R,1.150000X0.700000*%
%TD*%
%TA.AperFunction,SMDPad,CuDef*%
%ADD18R,1.150000X0.800000*%
%TD*%
%TA.AperFunction,SMDPad,CuDef*%
%ADD19R,1.150000X0.900000*%
%TD*%
%TA.AperFunction,ComponentPad*%
%ADD20O,2.000000X1.000000*%
%TD*%
%TA.AperFunction,ComponentPad*%
%ADD21R,1.700000X1.700000*%
%TD*%
%TA.AperFunction,ComponentPad*%
%ADD22C,1.700000*%
%TD*%
%TA.AperFunction,ComponentPad*%
%ADD23R,1.800000X1.800000*%
%TD*%
%TA.AperFunction,ComponentPad*%
%ADD24C,1.800000*%
%TD*%
%TA.AperFunction,ComponentPad*%
%ADD25R,1.200000X1.200000*%
%TD*%
%TA.AperFunction,ComponentPad*%
%ADD26C,1.200000*%
%TD*%
%TA.AperFunction,ComponentPad*%
%ADD27R,1.508000X1.508000*%
%TD*%
%TA.AperFunction,ComponentPad*%
%ADD28C,1.508000*%
%TD*%
%TA.AperFunction,ComponentPad*%
%ADD29O,1.700000X1.700000*%
%TD*%
%TA.AperFunction,ComponentPad*%
%ADD30C,2.000000*%
%TD*%
%TA.AperFunction,ViaPad*%
%ADD31C,0.800000*%
%TD*%
%TA.AperFunction,Conductor*%
%ADD32C,0.300000*%
%TD*%
%TA.AperFunction,Conductor*%
%ADD33C,0.500000*%
%TD*%
%TA.AperFunction,Conductor*%
%ADD34C,0.250000*%
%TD*%
G04 APERTURE END LIST*
D10*
%TO.P,C6,1*%
%TO.N,+5V*%
X215347000Y-111508000D03*
%TO.P,C6,2*%
%TO.N,GND*%
X210347000Y-111508000D03*
%TD*%
D11*
%TO.P,SW1,1,NC_1*%
%TO.N,unconnected-(SW1-NC_1-Pad1)*%
X154390000Y-130430000D03*
%TO.P,SW1,2,COM_1*%
%TO.N,Net-(SW1-COM_1)*%
X156390000Y-130430000D03*
%TO.P,SW1,3,NO_1*%
%TO.N,Net-(SW1-NO_1)*%
X158390000Y-130430000D03*
%TO.P,SW1,4,NC_2*%
%TO.N,unconnected-(SW1-NC_2-Pad4)*%
X154390000Y-125430000D03*
%TO.P,SW1,5,COM_2*%
%TO.N,unconnected-(SW1-COM_2-Pad5)*%
X156390000Y-125430000D03*
%TO.P,SW1,6,NO_2*%
%TO.N,unconnected-(SW1-NO_2-Pad6)*%
X158390000Y-125430000D03*
%TD*%
D12*
%TO.P,U8,1,~{MR}*%
%TO.N,/Clock/~{RST}*%
X139954000Y-90043000D03*
D13*
%TO.P,U8,2,CP*%
%TO.N,/Clock/CLK*%
X137414000Y-90043000D03*
%TO.P,U8,3,D0*%
%TO.N,unconnected-(U8-D0-Pad3)*%
X134874000Y-90043000D03*
%TO.P,U8,4,D1*%
%TO.N,unconnected-(U8-D1-Pad4)*%
X132334000Y-90043000D03*
%TO.P,U8,5,D2*%
%TO.N,unconnected-(U8-D2-Pad5)*%
X129794000Y-90043000D03*
%TO.P,U8,6,D3*%
%TO.N,unconnected-(U8-D3-Pad6)*%
X127254000Y-90043000D03*
%TO.P,U8,7,CEP*%
%TO.N,+5V*%
X124714000Y-90043000D03*
%TO.P,U8,8,GND*%
%TO.N,GND*%
X122174000Y-90043000D03*
%TO.P,U8,9,~{PE}*%
%TO.N,+5V*%
X122174000Y-97663000D03*
%TO.P,U8,10,CET*%
%TO.N,Net-(U7-TC)*%
X124714000Y-97663000D03*
%TO.P,U8,11,Q3*%
%TO.N,Net-(U8-Q3)*%
X127254000Y-97663000D03*
%TO.P,U8,12,Q2*%
%TO.N,/Counter & Bar Graph/OUT_18*%
X129794000Y-97663000D03*
%TO.P,U8,13,Q1*%
%TO.N,/Counter & Bar Graph/OUT_17*%
X132334000Y-97663000D03*
%TO.P,U8,14,Q0*%
%TO.N,/Counter & Bar Graph/OUT_16*%
X134874000Y-97663000D03*
%TO.P,U8,15,TC*%
%TO.N,/Clock/HALT*%
X137414000Y-97663000D03*
%TO.P,U8,16,VCC*%
%TO.N,+5V*%
X139954000Y-97663000D03*
%TD*%
D10*
%TO.P,R5,1*%
%TO.N,Net-(U3-DIS)*%
X132486400Y-108254800D03*
D13*
%TO.P,R5,2*%
%TO.N,Net-(R5-Pad2)*%
X124866400Y-108254800D03*
%TD*%
D12*
%TO.P,U6,1,~{MR}*%
%TO.N,/Clock/~{RST}*%
X139954000Y-63881000D03*
D13*
%TO.P,U6,2,CP*%
%TO.N,/Clock/CLK*%
X137414000Y-63881000D03*
%TO.P,U6,3,D0*%
%TO.N,unconnected-(U6-D0-Pad3)*%
X134874000Y-63881000D03*
%TO.P,U6,4,D1*%
%TO.N,unconnected-(U6-D1-Pad4)*%
X132334000Y-63881000D03*
%TO.P,U6,5,D2*%
%TO.N,unconnected-(U6-D2-Pad5)*%
X129794000Y-63881000D03*
%TO.P,U6,6,D3*%
%TO.N,unconnected-(U6-D3-Pad6)*%
X127254000Y-63881000D03*
%TO.P,U6,7,CEP*%
%TO.N,+5V*%
X124714000Y-63881000D03*
%TO.P,U6,8,GND*%
%TO.N,GND*%
X122174000Y-63881000D03*
%TO.P,U6,9,~{PE}*%
%TO.N,+5V*%
X122174000Y-71501000D03*
%TO.P,U6,10,CET*%
%TO.N,Net-(U4-TC)*%
X124714000Y-71501000D03*
%TO.P,U6,11,Q3*%
%TO.N,/Counter & Bar Graph/OUT_11*%
X127254000Y-71501000D03*
%TO.P,U6,12,Q2*%
%TO.N,/Counter & Bar Graph/OUT_10*%
X129794000Y-71501000D03*
%TO.P,U6,13,Q1*%
%TO.N,/Counter & Bar Graph/OUT_09*%
X132334000Y-71501000D03*
%TO.P,U6,14,Q0*%
%TO.N,/Counter & Bar Graph/OUT_08*%
X134874000Y-71501000D03*
%TO.P,U6,15,TC*%
%TO.N,Net-(U6-TC)*%
X137414000Y-71501000D03*
%TO.P,U6,16,VCC*%
%TO.N,+5V*%
X139954000Y-71501000D03*
%TD*%
D10*
%TO.P,R11,1*%
%TO.N,Net-(J2-CC1)*%
X210053000Y-127764000D03*
D13*
%TO.P,R11,2*%
%TO.N,GND*%
X202433000Y-127764000D03*
%TD*%
D10*
%TO.P,R3,1*%
%TO.N,+5V*%
X164840000Y-120050000D03*
D13*
%TO.P,R3,2*%
%TO.N,Net-(SW1-NO_1)*%
X157220000Y-120050000D03*
%TD*%
D14*
%TO.P,RV2,1,1*%
%TO.N,unconnected-(RV2-Pad1)*%
X55245000Y-31750000D03*
D15*
%TO.P,RV2,2,2*%
%TO.N,/LCD Display & Logic/V0*%
X57785000Y-34290000D03*
%TO.P,RV2,3,3*%
%TO.N,GND*%
X60325000Y-31750000D03*
%TD*%
D10*
%TO.P,R8,1*%
%TO.N,+5V*%
X122080000Y-120430000D03*
D13*
%TO.P,R8,2*%
%TO.N,Net-(C5-Pad1)*%
X129700000Y-120430000D03*
%TD*%
D16*
%TO.P,U10,1,A18*%
%TO.N,GND*%
X216408000Y-76962000D03*
%TO.P,U10,2,A16*%
X216408000Y-74422000D03*
%TO.P,U10,3,A15*%
X216408000Y-71882000D03*
%TO.P,U10,4,A12*%
X216408000Y-69342000D03*
%TO.P,U10,5,A7*%
%TO.N,/LCD Display & Logic/D7*%
X216408000Y-66802000D03*
%TO.P,U10,6,A6*%
%TO.N,/LCD Display & Logic/D6*%
X216408000Y-64262000D03*
%TO.P,U10,7,A5*%
%TO.N,/LCD Display & Logic/D5*%
X216408000Y-61722000D03*
%TO.P,U10,8,A4*%
%TO.N,/LCD Display & Logic/D4*%
X216408000Y-59182000D03*
%TO.P,U10,9,A3*%
%TO.N,/LCD Display & Logic/D3*%
X216408000Y-56642000D03*
%TO.P,U10,10,A2*%
%TO.N,/LCD Display & Logic/D2*%
X216408000Y-54102000D03*
%TO.P,U10,11,A1*%
%TO.N,/LCD Display & Logic/D1*%
X216408000Y-51562000D03*
%TO.P,U10,12,A0*%
%TO.N,/LCD Display & Logic/D0*%
X216408000Y-49022000D03*
%TO.P,U10,13,DQ0*%
%TO.N,/LCD Display & Logic/RS*%
X216408000Y-46482000D03*
%TO.P,U10,14,DQ1*%
%TO.N,unconnected-(U10-DQ1-Pad14)*%
X216408000Y-43942000D03*
%TO.P,U10,15,DQ2*%
%TO.N,unconnected-(U10-DQ2-Pad15)*%
X216408000Y-41402000D03*
%TO.P,U10,16,VSS*%
%TO.N,GND*%
X216408000Y-38862000D03*
%TO.P,U10,17,DQ3*%
%TO.N,unconnected-(U10-DQ3-Pad17)*%
X201168000Y-38862000D03*
%TO.P,U10,18,DQ4*%
%TO.N,unconnected-(U10-DQ4-Pad18)*%
X201168000Y-41402000D03*
%TO.P,U10,19,DQ5*%
%TO.N,unconnected-(U10-DQ5-Pad19)*%
X201168000Y-43942000D03*
%TO.P,U10,20,DQ6*%
%TO.N,unconnected-(U10-DQ6-Pad20)*%
X201168000Y-46482000D03*
%TO.P,U10,21,DQ7*%
%TO.N,unconnected-(U10-DQ7-Pad21)*%
X201168000Y-49022000D03*
%TO.P,U10,22,\u002ACE*%
%TO.N,GND*%
X201168000Y-51562000D03*
%TO.P,U10,23,A10*%
X201168000Y-54102000D03*
%TO.P,U10,24,\u002AOE*%
X201168000Y-56642000D03*
%TO.P,U10,25,A11*%
X201168000Y-59182000D03*
%TO.P,U10,26,A9*%
X201168000Y-61722000D03*
%TO.P,U10,27,A8*%
X201168000Y-64262000D03*
%TO.P,U10,28,A13*%
X201168000Y-66802000D03*
%TO.P,U10,29,A14*%
X201168000Y-69342000D03*
%TO.P,U10,30,A17*%
X201168000Y-71882000D03*
%TO.P,U10,31,\u002AWE*%
%TO.N,+5V*%
X201168000Y-74422000D03*
%TO.P,U10,32,VDD*%
X201168000Y-76962000D03*
%TD*%
D17*
%TO.P,J2,A5,CC1*%
%TO.N,Net-(J2-CC1)*%
X214879000Y-122672000D03*
D18*
%TO.P,J2,A9,V-BUS*%
%TO.N,+5V*%
X214879000Y-120652000D03*
D19*
%TO.P,J2,A12,GND*%
%TO.N,GND*%
X214879000Y-119422000D03*
D17*
%TO.P,J2,B5,CC2*%
%TO.N,Net-(J2-CC2)*%
X214879000Y-121672000D03*
D18*
%TO.P,J2,B9,V-BUS__1*%
%TO.N,+5V*%
X214879000Y-123692000D03*
D19*
%TO.P,J2,B12,GND__1*%
%TO.N,GND*%
X214879000Y-124922000D03*
D20*
%TO.P,J2,S1,SHIELD*%
%TO.N,unconnected-(J2-SHIELD-PadS1)*%
X214884000Y-126492000D03*
%TO.P,J2,S2,SHIELD__1*%
%TO.N,unconnected-(J2-SHIELD__1-PadS2)*%
X214884000Y-117852000D03*
%TO.P,J2,S3,SHIELD__2*%
%TO.N,unconnected-(J2-SHIELD__2-PadS3)*%
X218684000Y-126492000D03*
%TO.P,J2,S4,SHIELD__3*%
%TO.N,unconnected-(J2-SHIELD__3-PadS4)*%
X218684000Y-117852000D03*
%TD*%
D10*
%TO.P,R2,1*%
%TO.N,GND*%
X92075000Y-127000000D03*
D13*
%TO.P,R2,2*%
%TO.N,Net-(D1-K)*%
X84455000Y-127000000D03*
%TD*%
D12*
%TO.P,RN3,1,common*%
%TO.N,GND*%
X174752000Y-76454000D03*
D13*
%TO.P,RN3,2,R1*%
%TO.N,Net-(RN3-R1)*%
X172212000Y-76454000D03*
%TO.P,RN3,3,R2*%
%TO.N,Net-(RN3-R2)*%
X169672000Y-76454000D03*
%TO.P,RN3,4,R3*%
%TO.N,Net-(RN3-R3)*%
X167132000Y-76454000D03*
%TO.P,RN3,5,R4*%
%TO.N,Net-(RN3-R4)*%
X164592000Y-76454000D03*
%TO.P,RN3,6,R5*%
%TO.N,Net-(RN3-R5)*%
X162052000Y-76454000D03*
%TO.P,RN3,7,R6*%
%TO.N,Net-(RN3-R6)*%
X159512000Y-76454000D03*
%TO.P,RN3,8,R7*%
%TO.N,Net-(RN3-R7)*%
X156972000Y-76454000D03*
%TO.P,RN3,9,R8*%
%TO.N,Net-(RN3-R8)*%
X154432000Y-76454000D03*
%TO.P,RN3,10,R9*%
%TO.N,unconnected-(RN3-R9-Pad10)*%
X151892000Y-76454000D03*
%TO.P,RN3,11,R10*%
%TO.N,Net-(RN3-R10)*%
X149352000Y-76454000D03*
%TD*%
D12*
%TO.P,U2,1*%
%TO.N,Net-(D1-A)*%
X129032000Y-132461000D03*
D13*
%TO.P,U2,2*%
%TO.N,+5V*%
X131572000Y-132461000D03*
%TO.P,U2,3*%
%TO.N,/Clock/~{RST}*%
X134112000Y-132461000D03*
%TO.P,U2,4*%
%TO.N,/Clock/HALT*%
X136652000Y-132461000D03*
%TO.P,U2,5*%
%TO.N,/Clock/~{RST}*%
X139192000Y-132461000D03*
%TO.P,U2,6*%
%TO.N,Net-(D2-K)*%
X141732000Y-132461000D03*
%TO.P,U2,7,GND*%
%TO.N,GND*%
X144272000Y-132461000D03*
%TO.P,U2,8*%
%TO.N,/Clock/CLK*%
X144272000Y-124841000D03*
%TO.P,U2,9*%
%TO.N,/Clock/~{CLK}*%
X141732000Y-124841000D03*
%TO.P,U2,10*%
%TO.N,+5V*%
X139192000Y-124841000D03*
%TO.P,U2,11*%
%TO.N,/Clock/~{CLK}*%
X136652000Y-124841000D03*
%TO.P,U2,12*%
%TO.N,Net-(U3-Q)*%
X134112000Y-124841000D03*
%TO.P,U2,13*%
%TO.N,Net-(C5-Pad1)*%
X131572000Y-124841000D03*
%TO.P,U2,14,VCC*%
%TO.N,+5V*%
X129032000Y-124841000D03*
%TD*%
D21*
%TO.P,D4,1*%
%TO.N,/Counter & Bar Graph/OUT_10*%
X172466000Y-92837000D03*
D22*
%TO.P,D4,2*%
%TO.N,/Counter & Bar Graph/OUT_11*%
X169926000Y-92837000D03*
%TO.P,D4,3*%
%TO.N,/Counter & Bar Graph/OUT_12*%
X167386000Y-92837000D03*
%TO.P,D4,4*%
%TO.N,/Counter & Bar Graph/OUT_13*%
X164846000Y-92837000D03*
%TO.P,D4,5*%
%TO.N,/Counter & Bar Graph/OUT_14*%
X162306000Y-92837000D03*
%TO.P,D4,6*%
%TO.N,/Counter & Bar Graph/OUT_15*%
X159766000Y-92837000D03*
%TO.P,D4,7*%
%TO.N,/Counter & Bar Graph/OUT_16*%
X157226000Y-92837000D03*
%TO.P,D4,8*%
%TO.N,/Counter & Bar Graph/OUT_17*%
X154686000Y-92837000D03*
%TO.P,D4,9*%
%TO.N,/Counter & Bar Graph/OUT_18*%
X152146000Y-92837000D03*
%TO.P,D4,10*%
%TO.N,Net-(U8-Q3)*%
X149606000Y-92837000D03*
%TO.P,D4,11*%
%TO.N,Net-(RN1-R10)*%
X149606000Y-100457000D03*
%TO.P,D4,12*%
%TO.N,Net-(RN1-R9)*%
X152146000Y-100457000D03*
%TO.P,D4,13*%
%TO.N,Net-(RN1-R8)*%
X154686000Y-100457000D03*
%TO.P,D4,14*%
%TO.N,Net-(RN1-R7)*%
X157226000Y-100457000D03*
%TO.P,D4,15*%
%TO.N,Net-(RN1-R6)*%
X159766000Y-100457000D03*
%TO.P,D4,16*%
%TO.N,Net-(RN1-R5)*%
X162306000Y-100457000D03*
%TO.P,D4,17*%
%TO.N,Net-(RN1-R4)*%
X164846000Y-100457000D03*
%TO.P,D4,18*%
%TO.N,Net-(RN1-R3)*%
X167386000Y-100457000D03*
%TO.P,D4,19*%
%TO.N,Net-(RN1-R2)*%
X169926000Y-100457000D03*
%TO.P,D4,20*%
%TO.N,Net-(RN1-R1)*%
X172466000Y-100457000D03*
%TD*%
D23*
%TO.P,D1,1,K*%
%TO.N,Net-(D1-K)*%
X79300000Y-127935000D03*
D24*
%TO.P,D1,2,A*%
%TO.N,Net-(D1-A)*%
X76760000Y-127935000D03*
%TD*%
D12*
%TO.P,U4,1,~{MR}*%
%TO.N,/Clock/~{RST}*%
X139700000Y-38735000D03*
D13*
%TO.P,U4,2,CP*%
%TO.N,/Clock/CLK*%
X137160000Y-38735000D03*
%TO.P,U4,3,D0*%
%TO.N,unconnected-(U4-D0-Pad3)*%
X134620000Y-38735000D03*
%TO.P,U4,4,D1*%
%TO.N,unconnected-(U4-D1-Pad4)*%
X132080000Y-38735000D03*
%TO.P,U4,5,D2*%
%TO.N,unconnected-(U4-D2-Pad5)*%
X129540000Y-38735000D03*
%TO.P,U4,6,D3*%
%TO.N,unconnected-(U4-D3-Pad6)*%
X127000000Y-38735000D03*
%TO.P,U4,7,CEP*%
%TO.N,+5V*%
X124460000Y-38735000D03*
%TO.P,U4,8,GND*%
%TO.N,GND*%
X121920000Y-38735000D03*
%TO.P,U4,9,~{PE}*%
%TO.N,+5V*%
X121920000Y-46355000D03*
%TO.P,U4,10,CET*%
%TO.N,Net-(U4-CET)*%
X124460000Y-46355000D03*
%TO.P,U4,11,Q3*%
%TO.N,/Counter & Bar Graph/OUT_07*%
X127000000Y-46355000D03*
%TO.P,U4,12,Q2*%
%TO.N,/Counter & Bar Graph/OUT_06*%
X129540000Y-46355000D03*
%TO.P,U4,13,Q1*%
%TO.N,/Counter & Bar Graph/OUT_05*%
X132080000Y-46355000D03*
%TO.P,U4,14,Q0*%
%TO.N,/Counter & Bar Graph/OUT_04*%
X134620000Y-46355000D03*
%TO.P,U4,15,TC*%
%TO.N,Net-(U4-TC)*%
X137160000Y-46355000D03*
%TO.P,U4,16,VCC*%
%TO.N,+5V*%
X139700000Y-46355000D03*
%TD*%
D23*
%TO.P,D2,1,K*%
%TO.N,Net-(D2-K)*%
X215900000Y-101351000D03*
D24*
%TO.P,D2,2,A*%
%TO.N,Net-(D2-A)*%
X215900000Y-98811000D03*
%TD*%
D12*
%TO.P,U1,1,GND*%
%TO.N,GND*%
X61976000Y-131735000D03*
D13*
%TO.P,U1,2,TR*%
%TO.N,Net-(U1-THR)*%
X64516000Y-131735000D03*
%TO.P,U1,3,Q*%
%TO.N,Net-(D1-A)*%
X67056000Y-131735000D03*
%TO.P,U1,4,R*%
%TO.N,+5V*%
X69596000Y-131735000D03*
%TO.P,U1,5,CV*%
%TO.N,Net-(U1-CV)*%
X69596000Y-124115000D03*
%TO.P,U1,6,THR*%
%TO.N,Net-(U1-THR)*%
X67056000Y-124115000D03*
%TO.P,U1,7,DIS*%
%TO.N,unconnected-(U1-DIS-Pad7)*%
X64516000Y-124115000D03*
%TO.P,U1,8,VCC*%
%TO.N,+5V*%
X61976000Y-124115000D03*
%TD*%
D10*
%TO.P,R7,1*%
%TO.N,Net-(D2-A)*%
X215900000Y-92710000D03*
D13*
%TO.P,R7,2*%
%TO.N,+5V*%
X215900000Y-85090000D03*
%TD*%
D12*
%TO.P,U7,1,~{MR}*%
%TO.N,/Clock/~{RST}*%
X139954000Y-75946000D03*
D13*
%TO.P,U7,2,CP*%
%TO.N,/Clock/CLK*%
X137414000Y-75946000D03*
%TO.P,U7,3,D0*%
%TO.N,unconnected-(U7-D0-Pad3)*%
X134874000Y-75946000D03*
%TO.P,U7,4,D1*%
%TO.N,unconnected-(U7-D1-Pad4)*%
X132334000Y-75946000D03*
%TO.P,U7,5,D2*%
%TO.N,unconnected-(U7-D2-Pad5)*%
X129794000Y-75946000D03*
%TO.P,U7,6,D3*%
%TO.N,unconnected-(U7-D3-Pad6)*%
X127254000Y-75946000D03*
%TO.P,U7,7,CEP*%
%TO.N,+5V*%
X124714000Y-75946000D03*
%TO.P,U7,8,GND*%
%TO.N,GND*%
X122174000Y-75946000D03*
%TO.P,U7,9,~{PE}*%
%TO.N,+5V*%
X122174000Y-83566000D03*
%TO.P,U7,10,CET*%
%TO.N,Net-(U6-TC)*%
X124714000Y-83566000D03*
%TO.P,U7,11,Q3*%
%TO.N,/Counter & Bar Graph/OUT_15*%
X127254000Y-83566000D03*
%TO.P,U7,12,Q2*%
%TO.N,/Counter & Bar Graph/OUT_14*%
X129794000Y-83566000D03*
%TO.P,U7,13,Q1*%
%TO.N,/Counter & Bar Graph/OUT_13*%
X132334000Y-83566000D03*
%TO.P,U7,14,Q0*%
%TO.N,/Counter & Bar Graph/OUT_12*%
X134874000Y-83566000D03*
%TO.P,U7,15,TC*%
%TO.N,Net-(U7-TC)*%
X137414000Y-83566000D03*
%TO.P,U7,16,VCC*%
%TO.N,+5V*%
X139954000Y-83566000D03*
%TD*%
D12*
%TO.P,RN2,1,common*%
%TO.N,GND*%
X206742000Y-104267000D03*
D13*
%TO.P,RN2,2,R1*%
%TO.N,Net-(RN2-R1)*%
X204202000Y-104267000D03*
%TO.P,RN2,3,R2*%
%TO.N,Net-(RN2-R2)*%
X201662000Y-104267000D03*
%TO.P,RN2,4,R3*%
%TO.N,Net-(RN2-R3)*%
X199122000Y-104267000D03*
%TO.P,RN2,5,R4*%
%TO.N,Net-(RN2-R4)*%
X196582000Y-104267000D03*
%TO.P,RN2,6,R5*%
%TO.N,Net-(RN2-R5)*%
X194042000Y-104267000D03*
%TO.P,RN2,7,R6*%
%TO.N,Net-(RN2-R6)*%
X191502000Y-104267000D03*
%TO.P,RN2,8,R7*%
%TO.N,Net-(RN2-R7)*%
X188962000Y-104267000D03*
%TO.P,RN2,9,R8*%
%TO.N,Net-(RN2-R8)*%
X186422000Y-104267000D03*
%TO.P,RN2,10,R9*%
%TO.N,Net-(RN2-R9)*%
X183882000Y-104267000D03*
%TO.P,RN2,11,R10*%
%TO.N,Net-(RN2-R10)*%
X181342000Y-104267000D03*
%TD*%
D25*
%TO.P,C3,1*%
%TO.N,Net-(SW1-COM_1)*%
X116332000Y-136525000D03*
D26*
%TO.P,C3,2*%
%TO.N,GND*%
X114332000Y-136525000D03*
%TD*%
D10*
%TO.P,R1,1*%
%TO.N,+5V*%
X75490000Y-136480000D03*
D13*
%TO.P,R1,2*%
%TO.N,Net-(U1-THR)*%
X67870000Y-136480000D03*
%TD*%
D27*
%TO.P,S1,1*%
%TO.N,Net-(U1-THR)*%
X56550000Y-130230000D03*
D28*
%TO.P,S1,2*%
X50050000Y-130230000D03*
%TO.P,S1,3*%
%TO.N,GND*%
X56550000Y-125730000D03*
%TO.P,S1,4*%
X50050000Y-125730000D03*
%TD*%
D21*
%TO.P,D5,1*%
%TO.N,/Counter & Bar Graph/OUT_00*%
X203962000Y-92837000D03*
D22*
%TO.P,D5,2*%
%TO.N,/Counter & Bar Graph/OUT_01*%
X201422000Y-92837000D03*
%TO.P,D5,3*%
%TO.N,/Counter & Bar Graph/OUT_02*%
X198882000Y-92837000D03*
%TO.P,D5,4*%
%TO.N,/Counter & Bar Graph/OUT_03*%
X196342000Y-92837000D03*
%TO.P,D5,5*%
%TO.N,/Counter & Bar Graph/OUT_04*%
X193802000Y-92837000D03*
%TO.P,D5,6*%
%TO.N,/Counter & Bar Graph/OUT_05*%
X191262000Y-92837000D03*
%TO.P,D5,7*%
%TO.N,/Counter & Bar Graph/OUT_06*%
X188722000Y-92837000D03*
%TO.P,D5,8*%
%TO.N,/Counter & Bar Graph/OUT_07*%
X186182000Y-92837000D03*
%TO.P,D5,9*%
%TO.N,/Counter & Bar Graph/OUT_08*%
X183642000Y-92837000D03*
%TO.P,D5,10*%
%TO.N,/Counter & Bar Graph/OUT_09*%
X181102000Y-92837000D03*
%TO.P,D5,11*%
%TO.N,Net-(RN2-R10)*%
X181102000Y-100457000D03*
%TO.P,D5,12*%
%TO.N,Net-(RN2-R9)*%
X183642000Y-100457000D03*
%TO.P,D5,13*%
%TO.N,Net-(RN2-R8)*%
X186182000Y-100457000D03*
%TO.P,D5,14*%
%TO.N,Net-(RN2-R7)*%
X188722000Y-100457000D03*
%TO.P,D5,15*%
%TO.N,Net-(RN2-R6)*%
X191262000Y-100457000D03*
%TO.P,D5,16*%
%TO.N,Net-(RN2-R5)*%
X193802000Y-100457000D03*
%TO.P,D5,17*%
%TO.N,Net-(RN2-R4)*%
X196342000Y-100457000D03*
%TO.P,D5,18*%
%TO.N,Net-(RN2-R3)*%
X198882000Y-100457000D03*
%TO.P,D5,19*%
%TO.N,Net-(RN2-R2)*%
X201422000Y-100457000D03*
%TO.P,D5,20*%
%TO.N,Net-(RN2-R1)*%
X203962000Y-100457000D03*
%TD*%
D10*
%TO.P,C2,1*%
%TO.N,Net-(U1-CV)*%
X73210000Y-123380000D03*
%TO.P,C2,2*%
%TO.N,+5V*%
X73210000Y-128380000D03*
%TD*%
%TO.P,R4,1*%
%TO.N,+5V*%
X124870000Y-112950000D03*
D13*
%TO.P,R4,2*%
%TO.N,Net-(U3-DIS)*%
X132490000Y-112950000D03*
%TD*%
D10*
%TO.P,R9,1*%
%TO.N,GND*%
X109220000Y-123825000D03*
D13*
%TO.P,R9,2*%
%TO.N,Net-(D3-K)*%
X101600000Y-123825000D03*
%TD*%
D21*
%TO.P,J1,1,Pin_1*%
%TO.N,GND*%
X58547000Y-41275000D03*
D29*
%TO.P,J1,2,Pin_2*%
%TO.N,+5V*%
X61087000Y-41275000D03*
%TO.P,J1,3,Pin_3*%
%TO.N,/LCD Display & Logic/V0*%
X63627000Y-41275000D03*
%TO.P,J1,4,Pin_4*%
%TO.N,/LCD Display & Logic/RS*%
X66167000Y-41275000D03*
%TO.P,J1,5,Pin_5*%
%TO.N,GND*%
X68707000Y-41275000D03*
%TO.P,J1,6,Pin_6*%
%TO.N,/Clock/~{CLK}*%
X71247000Y-41275000D03*
%TO.P,J1,7,Pin_7*%
%TO.N,/LCD Display & Logic/D0*%
X73787000Y-41275000D03*
%TO.P,J1,8,Pin_8*%
%TO.N,/LCD Display & Logic/D1*%
X76327000Y-41275000D03*
%TO.P,J1,9,Pin_9*%
%TO.N,/LCD Display & Logic/D2*%
X78867000Y-41275000D03*
%TO.P,J1,10,Pin_10*%
%TO.N,/LCD Display & Logic/D3*%
X81407000Y-41275000D03*
%TO.P,J1,11,Pin_11*%
%TO.N,/LCD Display & Logic/D4*%
X83947000Y-41275000D03*
%TO.P,J1,12,Pin_12*%
%TO.N,/LCD Display & Logic/D5*%
X86487000Y-41275000D03*
%TO.P,J1,13,Pin_13*%
%TO.N,/LCD Display & Logic/D6*%
X89027000Y-41275000D03*
%TO.P,J1,14,Pin_14*%
%TO.N,/LCD Display & Logic/D7*%
X91567000Y-41275000D03*
%TO.P,J1,15,Pin_15*%
%TO.N,+5V*%
X94107000Y-41275000D03*
%TO.P,J1,16,Pin_16*%
%TO.N,/LCD Display & Logic/BLK*%
X96647000Y-41275000D03*
%TD*%
D23*
%TO.P,D3,1,K*%
%TO.N,Net-(D3-K)*%
X104775000Y-128661000D03*
D24*
%TO.P,D3,2,A*%
%TO.N,/Clock/CLK*%
X107315000Y-128661000D03*
%TD*%
D14*
%TO.P,RV3,1,1*%
%TO.N,unconnected-(RV3-Pad1)*%
X68580000Y-31714616D03*
D15*
%TO.P,RV3,2,2*%
%TO.N,/LCD Display & Logic/BLK*%
X71120000Y-34254616D03*
%TO.P,RV3,3,3*%
%TO.N,GND*%
X73660000Y-31714616D03*
%TD*%
D10*
%TO.P,C4,1*%
%TO.N,Net-(U3-CV)*%
X122440000Y-136840000D03*
%TO.P,C4,2*%
%TO.N,+5V*%
X127440000Y-136840000D03*
%TD*%
D12*
%TO.P,RN1,1,common*%
%TO.N,GND*%
X175260000Y-104267000D03*
D13*
%TO.P,RN1,2,R1*%
%TO.N,Net-(RN1-R1)*%
X172720000Y-104267000D03*
%TO.P,RN1,3,R2*%
%TO.N,Net-(RN1-R2)*%
X170180000Y-104267000D03*
%TO.P,RN1,4,R3*%
%TO.N,Net-(RN1-R3)*%
X167640000Y-104267000D03*
%TO.P,RN1,5,R4*%
%TO.N,Net-(RN1-R4)*%
X165100000Y-104267000D03*
%TO.P,RN1,6,R5*%
%TO.N,Net-(RN1-R5)*%
X162560000Y-104267000D03*
%TO.P,RN1,7,R6*%
%TO.N,Net-(RN1-R6)*%
X160020000Y-104267000D03*
%TO.P,RN1,8,R7*%
%TO.N,Net-(RN1-R7)*%
X157480000Y-104267000D03*
%TO.P,RN1,9,R8*%
%TO.N,Net-(RN1-R8)*%
X154940000Y-104267000D03*
%TO.P,RN1,10,R9*%
%TO.N,Net-(RN1-R9)*%
X152400000Y-104267000D03*
%TO.P,RN1,11,R10*%
%TO.N,Net-(RN1-R10)*%
X149860000Y-104267000D03*
%TD*%
D25*
%TO.P,C5,1*%
%TO.N,Net-(C5-Pad1)*%
X133355000Y-120533000D03*
D26*
%TO.P,C5,2*%
%TO.N,GND*%
X135355000Y-120533000D03*
%TD*%
D12*
%TO.P,U3,1,GND*%
%TO.N,GND*%
X113745000Y-132471000D03*
D13*
%TO.P,U3,2,TR*%
%TO.N,Net-(SW1-COM_1)*%
X116285000Y-132471000D03*
%TO.P,U3,3,Q*%
%TO.N,Net-(U3-Q)*%
X118825000Y-132471000D03*
%TO.P,U3,4,R*%
%TO.N,Net-(D2-K)*%
X121365000Y-132471000D03*
%TO.P,U3,5,CV*%
%TO.N,Net-(U3-CV)*%
X121365000Y-124851000D03*
%TO.P,U3,6,THR*%
%TO.N,Net-(SW1-COM_1)*%
X118825000Y-124851000D03*
%TO.P,U3,7,DIS*%
%TO.N,Net-(U3-DIS)*%
X116285000Y-124851000D03*
%TO.P,U3,8,VCC*%
%TO.N,+5V*%
X113745000Y-124851000D03*
%TD*%
D21*
%TO.P,D6,1*%
%TO.N,/LCD Display & Logic/D0*%
X172212000Y-65151000D03*
D22*
%TO.P,D6,2*%
%TO.N,/LCD Display & Logic/D1*%
X169672000Y-65151000D03*
%TO.P,D6,3*%
%TO.N,/LCD Display & Logic/D2*%
X167132000Y-65151000D03*
%TO.P,D6,4*%
%TO.N,/LCD Display & Logic/D3*%
X164592000Y-65151000D03*
%TO.P,D6,5*%
%TO.N,/LCD Display & Logic/D4*%
X162052000Y-65151000D03*
%TO.P,D6,6*%
%TO.N,/LCD Display & Logic/D5*%
X159512000Y-65151000D03*
%TO.P,D6,7*%
%TO.N,/LCD Display & Logic/D6*%
X156972000Y-65151000D03*
%TO.P,D6,8*%
%TO.N,/LCD Display & Logic/D7*%
X154432000Y-65151000D03*
%TO.P,D6,9*%
%TO.N,unconnected-(D6-Pad9)*%
X151892000Y-65151000D03*
%TO.P,D6,10*%
%TO.N,/LCD Display & Logic/RS*%
X149352000Y-65151000D03*
%TO.P,D6,11*%
%TO.N,Net-(RN3-R10)*%
X149352000Y-72771000D03*
%TO.P,D6,12*%
%TO.N,unconnected-(D6-Pad12)*%
X151892000Y-72771000D03*
%TO.P,D6,13*%
%TO.N,Net-(RN3-R8)*%
X154432000Y-72771000D03*
%TO.P,D6,14*%
%TO.N,Net-(RN3-R7)*%
X156972000Y-72771000D03*
%TO.P,D6,15*%
%TO.N,Net-(RN3-R6)*%
X159512000Y-72771000D03*
%TO.P,D6,16*%
%TO.N,Net-(RN3-R5)*%
X162052000Y-72771000D03*
%TO.P,D6,17*%
%TO.N,Net-(RN3-R4)*%
X164592000Y-72771000D03*
%TO.P,D6,18*%
%TO.N,Net-(RN3-R3)*%
X167132000Y-72771000D03*
%TO.P,D6,19*%
%TO.N,Net-(RN3-R2)*%
X169672000Y-72771000D03*
%TO.P,D6,20*%
%TO.N,Net-(RN3-R1)*%
X172212000Y-72771000D03*
%TD*%
D10*
%TO.P,R6,1*%
%TO.N,GND*%
X202433000Y-133352000D03*
D13*
%TO.P,R6,2*%
%TO.N,Net-(D7-K)*%
X210053000Y-133352000D03*
%TD*%
D23*
%TO.P,D7,1,K*%
%TO.N,Net-(D7-K)*%
X215900000Y-132080000D03*
D24*
%TO.P,D7,2,A*%
%TO.N,+5V*%
X218440000Y-132080000D03*
%TD*%
D27*
%TO.P,S2,1*%
%TO.N,GND*%
X165670000Y-125650000D03*
D28*
%TO.P,S2,2*%
X172170000Y-125650000D03*
%TO.P,S2,3*%
%TO.N,Net-(SW1-NO_1)*%
X165670000Y-130150000D03*
%TO.P,S2,4*%
X172170000Y-130150000D03*
%TD*%
D16*
%TO.P,U9,1,A18*%
%TO.N,/Counter & Bar Graph/OUT_18*%
X195580000Y-76835000D03*
%TO.P,U9,2,A16*%
%TO.N,/Counter & Bar Graph/OUT_16*%
X195580000Y-74295000D03*
%TO.P,U9,3,A15*%
%TO.N,/Counter & Bar Graph/OUT_15*%
X195580000Y-71755000D03*
%TO.P,U9,4,A12*%
%TO.N,/Counter & Bar Graph/OUT_12*%
X195580000Y-69215000D03*
%TO.P,U9,5,A7*%
%TO.N,/Counter & Bar Graph/OUT_07*%
X195580000Y-66675000D03*
%TO.P,U9,6,A6*%
%TO.N,/Counter & Bar Graph/OUT_06*%
X195580000Y-64135000D03*
%TO.P,U9,7,A5*%
%TO.N,/Counter & Bar Graph/OUT_05*%
X195580000Y-61595000D03*
%TO.P,U9,8,A4*%
%TO.N,/Counter & Bar Graph/OUT_04*%
X195580000Y-59055000D03*
%TO.P,U9,9,A3*%
%TO.N,/Counter & Bar Graph/OUT_03*%
X195580000Y-56515000D03*
%TO.P,U9,10,A2*%
%TO.N,/Counter & Bar Graph/OUT_02*%
X195580000Y-53975000D03*
%TO.P,U9,11,A1*%
%TO.N,/Counter & Bar Graph/OUT_01*%
X195580000Y-51435000D03*
%TO.P,U9,12,A0*%
%TO.N,/Counter & Bar Graph/OUT_00*%
X195580000Y-48895000D03*
%TO.P,U9,13,DQ0*%
%TO.N,/LCD Display & Logic/D0*%
X195580000Y-46355000D03*
%TO.P,U9,14,DQ1*%
%TO.N,/LCD Display & Logic/D1*%
X195580000Y-43815000D03*
%TO.P,U9,15,DQ2*%
%TO.N,/LCD Display & Logic/D2*%
X195580000Y-41275000D03*
%TO.P,U9,16,VSS*%
%TO.N,GND*%
X195580000Y-38735000D03*
%TO.P,U9,17,DQ3*%
%TO.N,/LCD Display & Logic/D3*%
X180340000Y-38735000D03*
%TO.P,U9,18,DQ4*%
%TO.N,/LCD Display & Logic/D4*%
X180340000Y-41275000D03*
%TO.P,U9,19,DQ5*%
%TO.N,/LCD Display & Logic/D5*%
X180340000Y-43815000D03*
%TO.P,U9,20,DQ6*%
%TO.N,/LCD Display & Logic/D6*%
X180340000Y-46355000D03*
%TO.P,U9,21,DQ7*%
%TO.N,/LCD Display & Logic/D7*%
X180340000Y-48895000D03*
%TO.P,U9,22,\u002ACE*%
%TO.N,GND*%
X180340000Y-51435000D03*
%TO.P,U9,23,A10*%
%TO.N,/Counter & Bar Graph/OUT_10*%
X180340000Y-53975000D03*
%TO.P,U9,24,\u002AOE*%
%TO.N,GND*%
X180340000Y-56515000D03*
%TO.P,U9,25,A11*%
%TO.N,/Counter & Bar Graph/OUT_11*%
X180340000Y-59055000D03*
%TO.P,U9,26,A9*%
%TO.N,/Counter & Bar Graph/OUT_09*%
X180340000Y-61595000D03*
%TO.P,U9,27,A8*%
%TO.N,/Counter & Bar Graph/OUT_08*%
X180340000Y-64135000D03*
%TO.P,U9,28,A13*%
%TO.N,/Counter & Bar Graph/OUT_13*%
X180340000Y-66675000D03*
%TO.P,U9,29,A14*%
%TO.N,/Counter & Bar Graph/OUT_14*%
X180340000Y-69215000D03*
%TO.P,U9,30,A17*%
%TO.N,/Counter & Bar Graph/OUT_17*%
X180340000Y-71755000D03*
%TO.P,U9,31,\u002AWE*%
%TO.N,+5V*%
X180340000Y-74295000D03*
%TO.P,U9,32,VDD*%
X180340000Y-76835000D03*
%TD*%
D11*
%TO.P,RV1,1,1*%
%TO.N,unconnected-(RV1-Pad1)*%
X121031000Y-106863000D03*
%TO.P,RV1,2,2*%
%TO.N,unconnected-(RV1-Pad2)*%
X118031000Y-106863000D03*
%TO.P,RV1,3,3*%
%TO.N,unconnected-(RV1-Pad3)*%
X48031000Y-106863000D03*
X51031000Y-106863000D03*
%TO.P,RV1,4,4*%
%TO.N,Net-(R5-Pad2)*%
X119531000Y-114363000D03*
%TO.P,RV1,5,5*%
%TO.N,Net-(SW1-COM_1)*%
X116531000Y-114363000D03*
%TO.P,RV1,6,6*%
%TO.N,unconnected-(RV1-Pad6)*%
X49531000Y-114363000D03*
X52531000Y-114363000D03*
D30*
%TO.P,RV1,MH*%
%TO.N,N/C*%
X73531000Y-114813000D03*
X90531000Y-106413000D03*
%TD*%
D10*
%TO.P,R10,1*%
%TO.N,Net-(J2-CC2)*%
X210053000Y-117096000D03*
D13*
%TO.P,R10,2*%
%TO.N,GND*%
X202433000Y-117096000D03*
%TD*%
D25*
%TO.P,C1,1*%
%TO.N,Net-(U1-THR)*%
X61722000Y-136053000D03*
D26*
%TO.P,C1,2*%
%TO.N,GND*%
X59722000Y-136053000D03*
%TD*%
D12*
%TO.P,U5,1,~{MR}*%
%TO.N,/Clock/~{RST}*%
X139573000Y-51689000D03*
D13*
%TO.P,U5,2,CP*%
%TO.N,/Clock/CLK*%
X137033000Y-51689000D03*
%TO.P,U5,3,D0*%
%TO.N,unconnected-(U5-D0-Pad3)*%
X134493000Y-51689000D03*
%TO.P,U5,4,D1*%
%TO.N,unconnected-(U5-D1-Pad4)*%
X131953000Y-51689000D03*
%TO.P,U5,5,D2*%
%TO.N,unconnected-(U5-D2-Pad5)*%
X129413000Y-51689000D03*
%TO.P,U5,6,D3*%
%TO.N,unconnected-(U5-D3-Pad6)*%
X126873000Y-51689000D03*
%TO.P,U5,7,CEP*%
%TO.N,+5V*%
X124333000Y-51689000D03*
%TO.P,U5,8,GND*%
%TO.N,GND*%
X121793000Y-51689000D03*
%TO.P,U5,9,~{PE}*%
%TO.N,+5V*%
X121793000Y-59309000D03*
%TO.P,U5,10,CET*%
X124333000Y-59309000D03*
%TO.P,U5,11,Q3*%
%TO.N,/Counter & Bar Graph/OUT_03*%
X126873000Y-59309000D03*
%TO.P,U5,12,Q2*%
%TO.N,/Counter & Bar Graph/OUT_02*%
X129413000Y-59309000D03*
%TO.P,U5,13,Q1*%
%TO.N,/Counter & Bar Graph/OUT_01*%
X131953000Y-59309000D03*
%TO.P,U5,14,Q0*%
%TO.N,/Counter & Bar Graph/OUT_00*%
X134493000Y-59309000D03*
%TO.P,U5,15,TC*%
%TO.N,Net-(U4-CET)*%
X137033000Y-59309000D03*
%TO.P,U5,16,VCC*%
%TO.N,+5V*%
X139573000Y-59309000D03*
%TD*%
D31*
%TO.N,GND*%
X172466000Y-82931000D03*
X216408000Y-119380000D03*
X118618000Y-50673000D03*
X216408000Y-124968000D03*
X177165000Y-88519000D03*
X182880000Y-48895000D03*
X68690000Y-43690000D03*
X184912000Y-48768000D03*
X59742000Y-129957000D03*
%TO.N,+5V*%
X73204000Y-131735000D03*
X193675000Y-72898000D03*
X63298000Y-126147000D03*
X138658600Y-77444600D03*
X68834000Y-127127000D03*
X138684000Y-80562200D03*
X212344000Y-120904000D03*
X212344000Y-123444000D03*
%TO.N,Net-(D1-A)*%
X119190000Y-136350000D03*
%TO.N,Net-(D2-K)*%
X126540000Y-134330000D03*
%TO.N,/Clock/CLK*%
X141104000Y-93657600D03*
X138010000Y-50890000D03*
X137414000Y-80441800D03*
X148717000Y-120142000D03*
X116332000Y-126873000D03*
X138684000Y-70739000D03*
X143510000Y-126365000D03*
X138285000Y-43967400D03*
%TO.N,Net-(U3-DIS)*%
X123600000Y-122682000D03*
%TO.N,/Clock/~{RST}*%
X143637000Y-51943000D03*
X141892959Y-68359959D03*
X141122538Y-80562366D03*
X139395200Y-93052200D03*
X144881899Y-49228101D03*
X148844000Y-126619000D03*
X139954000Y-86843000D03*
X141804245Y-83646155D03*
X143637000Y-63246000D03*
%TO.N,/LCD Display & Logic/D0*%
X172212000Y-53975000D03*
X80474500Y-34714500D03*
X172212000Y-60917300D03*
%TO.N,/LCD Display & Logic/D1*%
X169672000Y-60917300D03*
%TO.N,/LCD Display & Logic/D2*%
X167132000Y-60917300D03*
X190495347Y-39755653D03*
X194280743Y-44539012D03*
%TO.N,/LCD Display & Logic/D3*%
X173900000Y-60917300D03*
X164592000Y-60917300D03*
%TO.N,/LCD Display & Logic/D4*%
X162052000Y-60917300D03*
X163195000Y-40513000D03*
%TO.N,/LCD Display & Logic/D5*%
X159512000Y-60917300D03*
X160528000Y-40894000D03*
%TO.N,/LCD Display & Logic/D6*%
X156972000Y-60917300D03*
X157988000Y-41148000D03*
%TO.N,/LCD Display & Logic/D7*%
X154432000Y-60909200D03*
X155780000Y-41150000D03*
%TO.N,/Clock/HALT*%
X147828000Y-126492000D03*
%TO.N,Net-(U4-TC)*%
X125730000Y-57531000D03*
%TO.N,/LCD Display & Logic/RS*%
X144526000Y-62445000D03*
X125730000Y-61984500D03*
%TO.N,/Clock/~{CLK}*%
X141224000Y-118999000D03*
%TO.N,/Counter & Bar Graph/OUT_10*%
X177546000Y-55880000D03*
X174625000Y-63844000D03*
%TO.N,/Counter & Bar Graph/OUT_11*%
X183434659Y-59160741D03*
X183515000Y-64439800D03*
X170720000Y-88235000D03*
X167601777Y-88235000D03*
%TO.N,/Counter & Bar Graph/OUT_12*%
X181356000Y-72898000D03*
%TO.N,/Counter & Bar Graph/OUT_13*%
X159960000Y-88810000D03*
X172210000Y-88810000D03*
%TO.N,/Counter & Bar Graph/OUT_14*%
X171704000Y-90895000D03*
%TO.N,/Counter & Bar Graph/OUT_17*%
X173650000Y-90283200D03*
%TO.N,/Counter & Bar Graph/OUT_00*%
X136202847Y-54170153D03*
X203962000Y-88569800D03*
%TO.N,/Counter & Bar Graph/OUT_01*%
X201422000Y-88188800D03*
X133731000Y-54356000D03*
%TO.N,/Counter & Bar Graph/OUT_02*%
X198882000Y-88188800D03*
%TO.N,/Counter & Bar Graph/OUT_03*%
X196342000Y-88188800D03*
X175620998Y-56616000D03*
X132080000Y-57150000D03*
%TO.N,/Counter & Bar Graph/OUT_04*%
X196977000Y-59055000D03*
X194106800Y-59922700D03*
%TO.N,/Counter & Bar Graph/OUT_05*%
X196977000Y-61595000D03*
X194132200Y-61493400D03*
%TO.N,/Counter & Bar Graph/OUT_06*%
X194056000Y-62611000D03*
X197003000Y-64135000D03*
%TO.N,/Counter & Bar Graph/OUT_07*%
X193970599Y-63607349D03*
%TO.N,/Counter & Bar Graph/OUT_08*%
X146330500Y-71882000D03*
X179832000Y-78867000D03*
%TO.N,/Counter & Bar Graph/OUT_09*%
X143383000Y-73660000D03*
%TD*%
D32*
%TO.N,Net-(U1-THR)*%
X56550000Y-130230000D02*
X56550000Y-130321000D01*
X56550000Y-130321000D02*
X59488000Y-133259000D01*
X59488000Y-133259000D02*
X61266000Y-133259000D01*
X63298000Y-133259000D02*
X64516000Y-132041000D01*
X56550000Y-130230000D02*
X50050000Y-130230000D01*
X67056000Y-124115000D02*
X67056000Y-126619000D01*
X64516000Y-129159000D02*
X64516000Y-131735000D01*
X67870000Y-136323000D02*
X67870000Y-136480000D01*
X61722000Y-133715000D02*
X61266000Y-133259000D01*
X64516000Y-132041000D02*
X64516000Y-131735000D01*
X64516000Y-131735000D02*
X64516000Y-132969000D01*
X64516000Y-132969000D02*
X67870000Y-136323000D01*
X67056000Y-126619000D02*
X64516000Y-129159000D01*
X61266000Y-133259000D02*
X63298000Y-133259000D01*
X61722000Y-136307000D02*
X61722000Y-133715000D01*
D33*
%TO.N,GND*%
X184912000Y-48768000D02*
X184912000Y-51943000D01*
X174752000Y-80645000D02*
X172466000Y-82931000D01*
X68707000Y-41275000D02*
X68707000Y-43673000D01*
X177165000Y-88519000D02*
X177165000Y-102362000D01*
X121793000Y-51689000D02*
X119634000Y-51689000D01*
X214879000Y-119422000D02*
X216366000Y-119422000D01*
X68707000Y-43673000D02*
X68690000Y-43690000D01*
X184912000Y-51943000D02*
X180340000Y-56515000D01*
X61520000Y-131735000D02*
X59742000Y-129957000D01*
X177165000Y-102362000D02*
X175260000Y-104267000D01*
X61976000Y-131735000D02*
X61520000Y-131735000D01*
X119634000Y-51689000D02*
X118618000Y-50673000D01*
X56550000Y-125730000D02*
X50050000Y-125730000D01*
X216366000Y-119422000D02*
X216408000Y-119380000D01*
X165670000Y-125650000D02*
X172170000Y-125650000D01*
X174752000Y-76454000D02*
X174752000Y-80645000D01*
X216362000Y-124922000D02*
X216408000Y-124968000D01*
X182880000Y-48895000D02*
X180340000Y-51435000D01*
X214879000Y-124922000D02*
X216362000Y-124922000D01*
D32*
%TO.N,Net-(U1-CV)*%
X72475000Y-124115000D02*
X73210000Y-123380000D01*
X69596000Y-124115000D02*
X72475000Y-124115000D01*
D33*
%TO.N,+5V*%
X73204000Y-131735000D02*
X73204000Y-132647000D01*
X124637800Y-100126800D02*
X122174000Y-97663000D01*
X180340000Y-74295000D02*
X180340000Y-76835000D01*
X212344000Y-120904000D02*
X212596000Y-120652000D01*
X186573000Y-107940000D02*
X177292000Y-117221000D01*
X123170000Y-45105000D02*
X138450000Y-45105000D01*
X215900000Y-85090000D02*
X208915000Y-85090000D01*
X100203000Y-35179000D02*
X94107000Y-41275000D01*
X155194000Y-117221000D02*
X166370000Y-117221000D01*
X61976000Y-124115000D02*
X61976000Y-124825000D01*
X124621000Y-120430000D02*
X129032000Y-124841000D01*
X61087000Y-41275000D02*
X61087000Y-45085000D01*
X123424000Y-82316000D02*
X138704000Y-82316000D01*
X142787000Y-63598082D02*
X142875000Y-63686082D01*
X212344000Y-123444000D02*
X212592000Y-123692000D01*
X124870000Y-116938000D02*
X124587000Y-117221000D01*
X122174000Y-78486000D02*
X124714000Y-75946000D01*
X124587000Y-117221000D02*
X126111000Y-117221000D01*
X72644000Y-133207000D02*
X72644000Y-133634000D01*
X177292000Y-117348000D02*
X177292000Y-117221000D01*
X68870000Y-117221000D02*
X124587000Y-117221000D01*
X142875000Y-62611000D02*
X142875000Y-62805918D01*
X146812000Y-117221000D02*
X155194000Y-117221000D01*
X164840000Y-120050000D02*
X164840000Y-118751000D01*
X208915000Y-85090000D02*
X208915000Y-105045000D01*
X135280400Y-102311200D02*
X133096000Y-100126800D01*
X164840000Y-118751000D02*
X166370000Y-117221000D01*
X117602000Y-117221000D02*
X118745000Y-117221000D01*
X201168000Y-77343000D02*
X208915000Y-85090000D01*
X212592000Y-123692000D02*
X214879000Y-123692000D01*
X142787000Y-62893918D02*
X142787000Y-63598082D01*
X121920000Y-41275000D02*
X121920000Y-46355000D01*
X135305800Y-102311200D02*
X135280400Y-102311200D01*
X206020000Y-107940000D02*
X186573000Y-107940000D01*
X131572000Y-132461000D02*
X136398000Y-127635000D01*
X68870000Y-127163000D02*
X68834000Y-127127000D01*
X124460000Y-38735000D02*
X120904000Y-35179000D01*
X113745000Y-121078000D02*
X117602000Y-117221000D01*
X124870000Y-112950000D02*
X124870000Y-116938000D01*
X212596000Y-120652000D02*
X214879000Y-120652000D01*
X124333000Y-56769000D02*
X121793000Y-59309000D01*
X138658600Y-77444600D02*
X138658600Y-80536800D01*
X138704000Y-82316000D02*
X139954000Y-83566000D01*
X131572000Y-132461000D02*
X127440000Y-136593000D01*
X87503000Y-71501000D02*
X122174000Y-71501000D01*
X122174000Y-97663000D02*
X122174000Y-92583000D01*
X113745000Y-124851000D02*
X113745000Y-121078000D01*
X177292000Y-117221000D02*
X166370000Y-117221000D01*
X213360000Y-137160000D02*
X197104000Y-137160000D01*
X199644000Y-72898000D02*
X201168000Y-74422000D01*
X61976000Y-124825000D02*
X63298000Y-126147000D01*
X147574000Y-114604800D02*
X135280400Y-102311200D01*
X61087000Y-45085000D02*
X87503000Y-71501000D01*
X208915000Y-105045000D02*
X206020000Y-107940000D01*
X212344000Y-123444000D02*
X212344000Y-125984000D01*
X197104000Y-137160000D02*
X177292000Y-117348000D01*
X218440000Y-132080000D02*
X213360000Y-137160000D01*
X142875000Y-68580000D02*
X139954000Y-71501000D01*
X146558000Y-117221000D02*
X146812000Y-117221000D01*
X121920000Y-46355000D02*
X121920000Y-49276000D01*
X127440000Y-136593000D02*
X127440000Y-136840000D01*
X142875000Y-63686082D02*
X142875000Y-68580000D01*
X121920000Y-46355000D02*
X123170000Y-45105000D01*
X122174000Y-83566000D02*
X123424000Y-82316000D01*
X193675000Y-72898000D02*
X199644000Y-72898000D01*
X124714000Y-74041000D02*
X122174000Y-71501000D01*
X124333000Y-51689000D02*
X124333000Y-56769000D01*
X138450000Y-45105000D02*
X139700000Y-46355000D01*
X139573000Y-59309000D02*
X142875000Y-62611000D01*
X122080000Y-120430000D02*
X124621000Y-120430000D01*
X124333000Y-59309000D02*
X121793000Y-59309000D01*
X122080000Y-119728000D02*
X124587000Y-117221000D01*
X124714000Y-75946000D02*
X124714000Y-74041000D01*
X124714000Y-90043000D02*
X124714000Y-86106000D01*
X212344000Y-120904000D02*
X212344000Y-114511000D01*
X122174000Y-83566000D02*
X122174000Y-78486000D01*
X144780000Y-127635000D02*
X155194000Y-117221000D01*
X124714000Y-68961000D02*
X122174000Y-71501000D01*
X147574000Y-117221000D02*
X147574000Y-114604800D01*
X121920000Y-49276000D02*
X124333000Y-51689000D01*
X120904000Y-35179000D02*
X100203000Y-35179000D01*
X139954000Y-97663000D02*
X135305800Y-102311200D01*
X138658600Y-80536800D02*
X138684000Y-80562200D01*
X122080000Y-120430000D02*
X122080000Y-119728000D01*
X71993000Y-127163000D02*
X68870000Y-127163000D01*
X139192000Y-124841000D02*
X146812000Y-117221000D01*
X61976000Y-124115000D02*
X68870000Y-117221000D01*
X124460000Y-38735000D02*
X121920000Y-41275000D01*
X136398000Y-127635000D02*
X144780000Y-127635000D01*
X72644000Y-133634000D02*
X75490000Y-136480000D01*
X212344000Y-114511000D02*
X215347000Y-111508000D01*
X69596000Y-131735000D02*
X71172000Y-131735000D01*
X73204000Y-132647000D02*
X72644000Y-133207000D01*
X122174000Y-92583000D02*
X124714000Y-90043000D01*
X71172000Y-131735000D02*
X72644000Y-133207000D01*
X124714000Y-86106000D02*
X122174000Y-83566000D01*
X73210000Y-128380000D02*
X71993000Y-127163000D01*
X133096000Y-100126800D02*
X124637800Y-100126800D01*
X201168000Y-74422000D02*
X201168000Y-77343000D01*
X212344000Y-125984000D02*
X218440000Y-132080000D01*
X126111000Y-117221000D02*
X146558000Y-117221000D01*
X124714000Y-63881000D02*
X124714000Y-68961000D01*
X142875000Y-62805918D02*
X142787000Y-62893918D01*
D32*
%TO.N,Net-(U3-CV)*%
X120965000Y-136840000D02*
X117602000Y-133477000D01*
X121417000Y-124799000D02*
X121365000Y-124851000D01*
X121365000Y-128304654D02*
X121365000Y-124851000D01*
X117602000Y-132067654D02*
X121365000Y-128304654D01*
X122440000Y-136840000D02*
X120965000Y-136840000D01*
X117602000Y-133477000D02*
X117602000Y-132067654D01*
D34*
%TO.N,Net-(C5-Pad1)*%
X129803000Y-120533000D02*
X129700000Y-120430000D01*
X133355000Y-120533000D02*
X129803000Y-120533000D01*
X133355000Y-123058000D02*
X131572000Y-124841000D01*
X133355000Y-120533000D02*
X133355000Y-123058000D01*
D32*
%TO.N,Net-(D1-K)*%
X79300000Y-127935000D02*
X80235000Y-127000000D01*
X80235000Y-127000000D02*
X84455000Y-127000000D01*
%TO.N,Net-(D1-A)*%
X110069000Y-139660000D02*
X100584000Y-130175000D01*
X68834000Y-129957000D02*
X67056000Y-131735000D01*
X119190000Y-136350000D02*
X119190000Y-137460000D01*
X116990000Y-139660000D02*
X110069000Y-139660000D01*
X119190000Y-137460000D02*
X116990000Y-139660000D01*
X79000000Y-130175000D02*
X76760000Y-127935000D01*
X100584000Y-130175000D02*
X79000000Y-130175000D01*
X76760000Y-127935000D02*
X74738000Y-129957000D01*
X74738000Y-129957000D02*
X68834000Y-129957000D01*
D34*
%TO.N,Net-(D2-K)*%
X123204000Y-134310000D02*
X121365000Y-132471000D01*
X126520000Y-134310000D02*
X123204000Y-134310000D01*
X126540000Y-134330000D02*
X126520000Y-134310000D01*
%TO.N,Net-(D2-A)*%
X215900000Y-92710000D02*
X215900000Y-98811000D01*
D32*
%TO.N,Net-(D3-K)*%
X103373000Y-123825000D02*
X101600000Y-123825000D01*
X104775000Y-128661000D02*
X104775000Y-125227000D01*
X104775000Y-125227000D02*
X103373000Y-123825000D01*
D34*
%TO.N,/Clock/CLK*%
X138252200Y-39878000D02*
X138252200Y-43934600D01*
D32*
X112258000Y-128661000D02*
X114046000Y-126873000D01*
X114046000Y-126873000D02*
X116332000Y-126873000D01*
D34*
X138252200Y-43934600D02*
X138285000Y-43967400D01*
X137160000Y-38735000D02*
X137160000Y-38785800D01*
D32*
X137414000Y-75946000D02*
X137414000Y-80441800D01*
X138213999Y-52869999D02*
X137033000Y-51689000D01*
X148717000Y-120396000D02*
X148717000Y-120142000D01*
X137414000Y-63881000D02*
X138213999Y-63081001D01*
X107315000Y-128661000D02*
X112258000Y-128661000D01*
D34*
X137160000Y-38785800D02*
X138252200Y-39878000D01*
D32*
X138684000Y-70739000D02*
X137414000Y-69469000D01*
X144272000Y-124841000D02*
X148717000Y-120396000D01*
D34*
X137832000Y-50890000D02*
X137033000Y-51689000D01*
D32*
X141104000Y-93657600D02*
X140959400Y-93802200D01*
X140959400Y-93802200D02*
X138988800Y-93802200D01*
X138988800Y-93802200D02*
X137414000Y-92227400D01*
D34*
X138010000Y-50890000D02*
X137832000Y-50890000D01*
D32*
X143510000Y-125603000D02*
X144272000Y-124841000D01*
X137414000Y-92227400D02*
X137414000Y-90043000D01*
X138213999Y-63081001D02*
X138213999Y-52869999D01*
X137414000Y-69469000D02*
X137414000Y-63881000D01*
X143510000Y-126365000D02*
X143510000Y-125603000D01*
%TO.N,Net-(RN1-R10)*%
X149606000Y-100457000D02*
X149606000Y-104013000D01*
X149606000Y-104013000D02*
X149860000Y-104267000D01*
%TO.N,Net-(RN1-R9)*%
X152146000Y-104013000D02*
X152400000Y-104267000D01*
X152146000Y-100457000D02*
X152146000Y-104013000D01*
%TO.N,Net-(RN1-R8)*%
X154686000Y-100457000D02*
X154686000Y-104013000D01*
X154686000Y-104013000D02*
X154940000Y-104267000D01*
%TO.N,Net-(RN1-R7)*%
X157226000Y-100457000D02*
X157226000Y-104013000D01*
X157226000Y-104013000D02*
X157480000Y-104267000D01*
%TO.N,Net-(RN1-R6)*%
X159766000Y-104013000D02*
X160020000Y-104267000D01*
X159766000Y-100457000D02*
X159766000Y-104013000D01*
%TO.N,Net-(RN1-R5)*%
X162306000Y-104013000D02*
X162560000Y-104267000D01*
X162306000Y-100457000D02*
X162306000Y-104013000D01*
%TO.N,Net-(RN1-R4)*%
X164846000Y-100457000D02*
X164846000Y-104013000D01*
X164846000Y-104013000D02*
X165100000Y-104267000D01*
%TO.N,Net-(RN1-R3)*%
X167386000Y-104013000D02*
X167640000Y-104267000D01*
X167386000Y-100457000D02*
X167386000Y-104013000D01*
%TO.N,Net-(RN1-R2)*%
X169926000Y-100457000D02*
X169926000Y-104013000D01*
X169926000Y-104013000D02*
X170180000Y-104267000D01*
%TO.N,Net-(RN1-R1)*%
X172466000Y-104013000D02*
X172720000Y-104267000D01*
X172466000Y-100457000D02*
X172466000Y-104013000D01*
%TO.N,Net-(RN2-R10)*%
X181102000Y-103968000D02*
X181401000Y-104267000D01*
X181102000Y-100487000D02*
X181102000Y-103968000D01*
%TO.N,Net-(RN2-R9)*%
X183642000Y-100487000D02*
X183642000Y-103968000D01*
X183642000Y-103968000D02*
X183941000Y-104267000D01*
%TO.N,Net-(RN2-R8)*%
X186182000Y-100487000D02*
X186182000Y-103968000D01*
X186182000Y-103968000D02*
X186481000Y-104267000D01*
%TO.N,Net-(RN2-R7)*%
X188722000Y-100487000D02*
X188722000Y-103968000D01*
X188722000Y-103968000D02*
X189021000Y-104267000D01*
%TO.N,Net-(RN2-R6)*%
X191262000Y-103968000D02*
X191561000Y-104267000D01*
X191262000Y-100487000D02*
X191262000Y-103968000D01*
%TO.N,Net-(RN2-R5)*%
X193802000Y-103968000D02*
X194101000Y-104267000D01*
X193802000Y-100487000D02*
X193802000Y-103968000D01*
%TO.N,Net-(RN2-R4)*%
X196342000Y-100487000D02*
X196342000Y-103968000D01*
X196342000Y-103968000D02*
X196641000Y-104267000D01*
%TO.N,Net-(RN2-R3)*%
X198882000Y-100487000D02*
X198882000Y-103968000D01*
X198882000Y-103968000D02*
X199181000Y-104267000D01*
%TO.N,Net-(RN2-R2)*%
X201422000Y-103968000D02*
X201721000Y-104267000D01*
X201422000Y-100487000D02*
X201422000Y-103968000D01*
%TO.N,Net-(RN2-R1)*%
X203962000Y-103968000D02*
X204261000Y-104267000D01*
X203962000Y-100487000D02*
X203962000Y-103968000D01*
%TO.N,Net-(U3-DIS)*%
X132588000Y-112678000D02*
X132736800Y-112826800D01*
X132736800Y-112826800D02*
X132740400Y-112826800D01*
X132588000Y-108356400D02*
X132588000Y-112678000D01*
X132486400Y-108254800D02*
X132588000Y-108356400D01*
X118454000Y-122682000D02*
X116285000Y-124851000D01*
X123600000Y-122682000D02*
X118454000Y-122682000D01*
D34*
%TO.N,/Clock/~{RST}*%
X141804245Y-84992755D02*
X141804245Y-83646155D01*
X143637000Y-51943000D02*
X143637000Y-63246000D01*
X139192000Y-132461000D02*
X141790000Y-129863000D01*
X141790000Y-129863000D02*
X144976000Y-129863000D01*
X144976000Y-129863000D02*
X145034000Y-129921000D01*
X139954000Y-92493400D02*
X139954000Y-90043000D01*
X145424305Y-129921000D02*
X148726305Y-126619000D01*
X138067000Y-133586000D02*
X139192000Y-132461000D01*
X135237000Y-133586000D02*
X138067000Y-133586000D01*
X145034000Y-129921000D02*
X145424305Y-129921000D01*
X139954000Y-79393828D02*
X139954000Y-75946000D01*
X140335000Y-38735000D02*
X139700000Y-38735000D01*
X142468600Y-46814802D02*
X142468600Y-40868600D01*
X139954000Y-86843000D02*
X141804245Y-84992755D01*
X139954000Y-66421000D02*
X139954000Y-63881000D01*
X139395200Y-93052200D02*
X139954000Y-92493400D01*
X144881899Y-49228101D02*
X142468600Y-46814802D01*
X141892959Y-68359959D02*
X139954000Y-66421000D01*
X148726305Y-126619000D02*
X148844000Y-126619000D01*
X142468600Y-40868600D02*
X140335000Y-38735000D01*
X134112000Y-132461000D02*
X135237000Y-133586000D01*
X141122538Y-80562366D02*
X139954000Y-79393828D01*
D32*
%TO.N,/LCD Display & Logic/V0*%
X63627000Y-38227000D02*
X63627000Y-41275000D01*
X59690000Y-34290000D02*
X63627000Y-38227000D01*
X57785000Y-34290000D02*
X59690000Y-34290000D01*
%TO.N,Net-(U3-Q)*%
X123661000Y-127635000D02*
X131318000Y-127635000D01*
X118825000Y-132471000D02*
X123661000Y-127635000D01*
X131318000Y-127635000D02*
X134112000Y-124841000D01*
D34*
%TO.N,/LCD Display & Logic/D0*%
X172212000Y-53975000D02*
X172212000Y-60917300D01*
X80347500Y-34714500D02*
X73787000Y-41275000D01*
X80474500Y-34714500D02*
X80347500Y-34714500D01*
%TO.N,/LCD Display & Logic/D1*%
X208030600Y-44990600D02*
X214602000Y-51562000D01*
X195580000Y-43815000D02*
X196755600Y-44990600D01*
X167825000Y-29649000D02*
X156491792Y-29649000D01*
X194741800Y-43815000D02*
X195580000Y-43815000D01*
X169672000Y-60917300D02*
X169672000Y-48063315D01*
X196755600Y-44990600D02*
X208030600Y-44990600D01*
X191237200Y-41757600D02*
X192684400Y-41757600D01*
X195580000Y-43815000D02*
X186791600Y-35026600D01*
X179947615Y-37787700D02*
X187267300Y-37787700D01*
X187267300Y-37787700D02*
X191237200Y-41757600D01*
X186791600Y-35026600D02*
X173202600Y-35026600D01*
X155936792Y-30204000D02*
X87398000Y-30204000D01*
X192684400Y-41757600D02*
X194741800Y-43815000D01*
X214602000Y-51562000D02*
X216408000Y-51562000D01*
X156491792Y-29649000D02*
X155936792Y-30204000D01*
X169672000Y-48063315D02*
X179947615Y-37787700D01*
X173202600Y-35026600D02*
X167825000Y-29649000D01*
X87398000Y-30204000D02*
X75917000Y-41685000D01*
%TO.N,/LCD Display & Logic/D2*%
X167132000Y-30099000D02*
X166421000Y-30810000D01*
X207746600Y-45440600D02*
X216408000Y-54102000D01*
X195865915Y-45440600D02*
X207746600Y-45440600D01*
X194280743Y-44539012D02*
X194964327Y-44539012D01*
X190495347Y-39755653D02*
X186426694Y-35687000D01*
X89488000Y-30654000D02*
X78457000Y-41685000D01*
X166421000Y-30810000D02*
X155906396Y-30810000D01*
X167132000Y-40386000D02*
X167132000Y-30099000D01*
X155906396Y-30810000D02*
X155750396Y-30654000D01*
X172847000Y-35687000D02*
X167259000Y-30099000D01*
X155750396Y-30654000D02*
X89488000Y-30654000D01*
X194964327Y-44539012D02*
X195865915Y-45440600D01*
X167259000Y-30099000D02*
X167132000Y-30099000D01*
X186426694Y-35687000D02*
X172847000Y-35687000D01*
X167132000Y-60917300D02*
X167132000Y-40386000D01*
%TO.N,/LCD Display & Logic/D3*%
X173900000Y-60917300D02*
X173990000Y-60827300D01*
X187452000Y-38735000D02*
X180340000Y-38735000D01*
X155720000Y-31260000D02*
X155564000Y-31104000D01*
X193751200Y-46812200D02*
X193751200Y-45034200D01*
X194614800Y-47675800D02*
X193751200Y-46812200D01*
X155564000Y-31104000D02*
X91578000Y-31104000D01*
X91578000Y-31104000D02*
X80997000Y-41685000D01*
X156160000Y-31260000D02*
X155720000Y-31260000D01*
X173990000Y-45085000D02*
X180340000Y-38735000D01*
X193751200Y-45034200D02*
X187452000Y-38735000D01*
X216408000Y-56642000D02*
X207441800Y-47675800D01*
X164592000Y-60917300D02*
X164592000Y-39692000D01*
X207441800Y-47675800D02*
X194614800Y-47675800D01*
X164592000Y-39692000D02*
X156160000Y-31260000D01*
X173990000Y-60827300D02*
X173990000Y-45085000D01*
%TO.N,/LCD Display & Logic/D4*%
X216408000Y-59182000D02*
X207264000Y-50038000D01*
X93668000Y-31554000D02*
X153624000Y-31554000D01*
X162052000Y-39982000D02*
X162052000Y-40513000D01*
X162052000Y-40513000D02*
X162052000Y-60917300D01*
X189103000Y-41275000D02*
X180340000Y-41275000D01*
X207264000Y-50038000D02*
X195383315Y-50038000D01*
X195383315Y-50038000D02*
X193293315Y-47948000D01*
X162052000Y-40513000D02*
X163195000Y-40513000D01*
X193293315Y-47948000D02*
X193293315Y-45465315D01*
X83947000Y-41275000D02*
X93668000Y-31554000D01*
X153624000Y-31554000D02*
X162052000Y-39982000D01*
X193293315Y-45465315D02*
X189103000Y-41275000D01*
%TO.N,/LCD Display & Logic/D5*%
X192843315Y-45651711D02*
X191006604Y-43815000D01*
X159512000Y-40894000D02*
X159512000Y-60917300D01*
X191006604Y-43815000D02*
X180340000Y-43815000D01*
X216027000Y-61722000D02*
X204793000Y-50488000D01*
X95758000Y-32004000D02*
X151144000Y-32004000D01*
X192843315Y-48134396D02*
X192843315Y-45651711D01*
X195196919Y-50488000D02*
X192843315Y-48134396D01*
X86077000Y-41685000D02*
X95758000Y-32004000D01*
X159512000Y-40372000D02*
X159512000Y-40894000D01*
X159512000Y-40894000D02*
X160528000Y-40894000D01*
X151144000Y-32004000D02*
X159512000Y-40372000D01*
X204793000Y-50488000D02*
X195196919Y-50488000D01*
X216408000Y-61722000D02*
X216027000Y-61722000D01*
%TO.N,/LCD Display & Logic/D6*%
X195314615Y-52509300D02*
X189160315Y-46355000D01*
X88617000Y-41685000D02*
X97790000Y-32512000D01*
X97790000Y-32512000D02*
X148922000Y-32512000D01*
X216027000Y-64262000D02*
X204216000Y-52451000D01*
X204216000Y-52451000D02*
X201618685Y-52451000D01*
X201560385Y-52509300D02*
X195314615Y-52509300D01*
X201618685Y-52451000D02*
X201560385Y-52509300D01*
X156972000Y-41148000D02*
X156972000Y-60917300D01*
X189160315Y-46355000D02*
X180340000Y-46355000D01*
X216408000Y-64262000D02*
X216027000Y-64262000D01*
X156972000Y-40562000D02*
X156972000Y-41148000D01*
X156972000Y-41148000D02*
X157988000Y-41148000D01*
X148922000Y-32512000D02*
X156972000Y-40562000D01*
%TO.N,/LCD Display & Logic/D7*%
X91567000Y-41275000D02*
X99822000Y-33020000D01*
X182372000Y-46863000D02*
X180340000Y-48895000D01*
X154452000Y-41150000D02*
X154432000Y-41130000D01*
X155780000Y-41150000D02*
X154452000Y-41150000D01*
X201805081Y-52901000D02*
X201746781Y-52959300D01*
X154432000Y-40502000D02*
X154432000Y-60909200D01*
X99822000Y-33020000D02*
X146950000Y-33020000D01*
X202126000Y-52901000D02*
X201805081Y-52901000D01*
X201746781Y-52959300D02*
X195128219Y-52959300D01*
X189031919Y-46863000D02*
X182372000Y-46863000D01*
X216027000Y-66802000D02*
X202126000Y-52901000D01*
X146950000Y-33020000D02*
X154432000Y-40502000D01*
X216408000Y-66802000D02*
X216027000Y-66802000D01*
X195128219Y-52959300D02*
X189031919Y-46863000D01*
%TO.N,Net-(RN3-R8)*%
X154432000Y-72771000D02*
X154432000Y-76454000D01*
%TO.N,Net-(RN3-R7)*%
X156972000Y-72771000D02*
X156972000Y-76454000D01*
%TO.N,Net-(RN3-R6)*%
X159512000Y-72771000D02*
X159512000Y-76454000D01*
%TO.N,Net-(RN3-R5)*%
X162052000Y-72771000D02*
X162052000Y-76454000D01*
%TO.N,Net-(RN3-R4)*%
X164592000Y-72771000D02*
X164592000Y-76454000D01*
%TO.N,Net-(RN3-R3)*%
X167132000Y-72771000D02*
X167132000Y-76454000D01*
%TO.N,Net-(RN3-R2)*%
X169672000Y-72771000D02*
X169672000Y-76454000D01*
%TO.N,Net-(RN3-R1)*%
X172212000Y-72771000D02*
X172212000Y-76454000D01*
%TO.N,/Clock/HALT*%
X144907000Y-129413000D02*
X139700000Y-129413000D01*
X139700000Y-129413000D02*
X136652000Y-132461000D01*
X147828000Y-126492000D02*
X144907000Y-129413000D01*
%TO.N,Net-(U4-CET)*%
X126933009Y-53340000D02*
X136398000Y-53340000D01*
X124460000Y-46355000D02*
X125585000Y-47480000D01*
X125585000Y-51991991D02*
X126933009Y-53340000D01*
X136398000Y-53340000D02*
X137033000Y-53975000D01*
X125585000Y-47480000D02*
X125585000Y-51991991D01*
X137033000Y-53975000D02*
X137033000Y-59309000D01*
%TO.N,Net-(U4-TC)*%
X126455000Y-61558000D02*
X126455000Y-62581695D01*
X125984000Y-63052695D02*
X125984000Y-70231000D01*
X125730000Y-57531000D02*
X125730000Y-60833000D01*
X125730000Y-60833000D02*
X126455000Y-61558000D01*
X126455000Y-62581695D02*
X125984000Y-63052695D01*
X125984000Y-70231000D02*
X124714000Y-71501000D01*
%TO.N,/LCD Display & Logic/RS*%
X216408000Y-46482000D02*
X219110000Y-43780000D01*
X219110000Y-43780000D02*
X219110000Y-38440000D01*
X146646000Y-62445000D02*
X144526000Y-62445000D01*
X90959299Y-45212000D02*
X67902000Y-45212000D01*
X219110000Y-38440000D02*
X209869000Y-29199000D01*
X125730000Y-61984500D02*
X125357500Y-62357000D01*
X155750396Y-29754000D02*
X83276000Y-29754000D01*
X67902000Y-45212000D02*
X66167000Y-43477000D01*
X66167000Y-43477000D02*
X66167000Y-41275000D01*
X108104299Y-62357000D02*
X90959299Y-45212000D01*
X74120000Y-38910000D02*
X68532000Y-38910000D01*
X149352000Y-65151000D02*
X146646000Y-62445000D01*
X68532000Y-38910000D02*
X66167000Y-41275000D01*
X83276000Y-29754000D02*
X74120000Y-38910000D01*
X156305396Y-29199000D02*
X155750396Y-29754000D01*
X209869000Y-29199000D02*
X156305396Y-29199000D01*
X125357500Y-62357000D02*
X108104299Y-62357000D01*
%TO.N,Net-(RN3-R10)*%
X149352000Y-72771000D02*
X149352000Y-76454000D01*
%TO.N,/Clock/~{CLK}*%
X141224000Y-118999000D02*
X136652000Y-123571000D01*
X136652000Y-123571000D02*
X136652000Y-124841000D01*
D32*
X137802000Y-125991000D02*
X140582000Y-125991000D01*
X136652000Y-124841000D02*
X137802000Y-125991000D01*
X140582000Y-125991000D02*
X141732000Y-124841000D01*
D34*
%TO.N,Net-(J2-CC1)*%
X210053000Y-127764000D02*
X210053000Y-124709695D01*
X210053000Y-124709695D02*
X212090695Y-122672000D01*
X212090695Y-122672000D02*
X214879000Y-122672000D01*
%TO.N,Net-(J2-CC2)*%
X212086695Y-121672000D02*
X214879000Y-121672000D01*
X210053000Y-117096000D02*
X210053000Y-119638305D01*
X210053000Y-119638305D02*
X212086695Y-121672000D01*
%TO.N,Net-(SW1-COM_1)*%
X118825000Y-129931000D02*
X116285000Y-132471000D01*
X116332000Y-132518000D02*
X116285000Y-132471000D01*
X116332000Y-136525000D02*
X116332000Y-132518000D01*
X118825000Y-124851000D02*
X118825000Y-129931000D01*
%TO.N,Net-(U8-Q3)*%
X148060400Y-94382600D02*
X149606000Y-92837000D01*
X128629400Y-94382600D02*
X148060400Y-94382600D01*
X127254000Y-97663000D02*
X127254000Y-95758000D01*
X127254000Y-95758000D02*
X128629400Y-94382600D01*
%TO.N,unconnected-(RV1-Pad3)*%
X48031000Y-106863000D02*
X48038000Y-106870000D01*
X51024000Y-106870000D02*
X51031000Y-106863000D01*
X48038000Y-106870000D02*
X51024000Y-106870000D01*
%TO.N,Net-(R5-Pad2)*%
X124866400Y-108254800D02*
X124866400Y-109027600D01*
X124866400Y-109027600D02*
X119531000Y-114363000D01*
%TO.N,/Counter & Bar Graph/OUT_10*%
X133749000Y-75480009D02*
X133749000Y-78224600D01*
X176392000Y-66421298D02*
X176392000Y-80358306D01*
X176403000Y-66410298D02*
X176392000Y-66421298D01*
X129794000Y-71501000D02*
X133761005Y-75468005D01*
X177546000Y-55880000D02*
X178435000Y-55880000D01*
X146487792Y-86668000D02*
X167588000Y-86668000D01*
X168570653Y-88179653D02*
X168570653Y-88941653D01*
X176403000Y-65622000D02*
X176403000Y-66410298D01*
X176392000Y-80358306D02*
X168570653Y-88179653D01*
X168570653Y-87650653D02*
X168570653Y-88179653D01*
X133749000Y-78224600D02*
X136811600Y-81287200D01*
X167588000Y-86668000D02*
X168570653Y-87650653D01*
X141106992Y-81287200D02*
X146487792Y-86668000D01*
X168570653Y-88941653D02*
X172466000Y-92837000D01*
X136811600Y-81287200D02*
X141106992Y-81287200D01*
X174625000Y-63844000D02*
X176403000Y-65622000D01*
X133761005Y-75468005D02*
X133749000Y-75480009D01*
X178435000Y-55880000D02*
X180340000Y-53975000D01*
%TO.N,/Counter & Bar Graph/OUT_11*%
X127254000Y-71501000D02*
X131221005Y-75468005D01*
X166484777Y-87118000D02*
X163957000Y-87118000D01*
X183328918Y-59055000D02*
X183434659Y-59160741D01*
X164207000Y-87118000D02*
X169926000Y-92837000D01*
X146301396Y-87118000D02*
X163957000Y-87118000D01*
X131209000Y-75480009D02*
X131209000Y-76411991D01*
X176842000Y-83508000D02*
X176842000Y-68833315D01*
X163957000Y-87118000D02*
X164207000Y-87118000D01*
X180244915Y-65430400D02*
X182524400Y-65430400D01*
X170720000Y-88235000D02*
X170870000Y-88085000D01*
X167601777Y-88235000D02*
X166484777Y-87118000D01*
X131221005Y-75468005D02*
X131209000Y-75480009D01*
X131209000Y-76411991D02*
X136534209Y-81737200D01*
X170870000Y-88085000D02*
X172265000Y-88085000D01*
X136534209Y-81737200D02*
X140920596Y-81737200D01*
X182524400Y-65430400D02*
X183515000Y-64439800D01*
X172265000Y-88085000D02*
X176842000Y-83508000D01*
X180340000Y-59055000D02*
X183328918Y-59055000D01*
X140920596Y-81737200D02*
X146301396Y-87118000D01*
X176842000Y-68833315D02*
X180244915Y-65430400D01*
%TO.N,/Counter & Bar Graph/OUT_12*%
X162117000Y-87568000D02*
X167386000Y-92837000D01*
X169011600Y-94462600D02*
X174142400Y-94462600D01*
X178943000Y-85090000D02*
X178943000Y-73914000D01*
X178943000Y-73914000D02*
X179959000Y-72898000D01*
X175133000Y-88900000D02*
X178943000Y-85090000D01*
X134874000Y-83566000D02*
X138876000Y-87568000D01*
X174142400Y-94462600D02*
X175133000Y-93472000D01*
X175133000Y-93472000D02*
X175133000Y-88900000D01*
X179959000Y-72898000D02*
X181356000Y-72898000D01*
X138876000Y-87568000D02*
X162117000Y-87568000D01*
X167386000Y-92837000D02*
X169011600Y-94462600D01*
%TO.N,/Counter & Bar Graph/OUT_13*%
X172810000Y-88810000D02*
X177292000Y-84328000D01*
X132334000Y-83566000D02*
X136786000Y-88018000D01*
X172210000Y-88810000D02*
X172810000Y-88810000D01*
X177292000Y-69723000D02*
X180340000Y-66675000D01*
X159168000Y-88018000D02*
X163987000Y-92837000D01*
X163987000Y-92837000D02*
X164846000Y-92837000D01*
X136786000Y-88018000D02*
X159168000Y-88018000D01*
X177292000Y-84328000D02*
X177292000Y-69723000D01*
%TO.N,/Counter & Bar Graph/OUT_14*%
X129794000Y-83566000D02*
X134696000Y-88468000D01*
X180340000Y-69215000D02*
X177800000Y-71755000D01*
X157937000Y-88468000D02*
X162306000Y-92837000D01*
X177800000Y-84582000D02*
X171704000Y-90678000D01*
X177800000Y-71755000D02*
X177800000Y-84582000D01*
X171704000Y-90678000D02*
X171704000Y-90895000D01*
X134696000Y-88468000D02*
X157937000Y-88468000D01*
%TO.N,/Counter & Bar Graph/OUT_15*%
X132606000Y-88918000D02*
X155847000Y-88918000D01*
X127254000Y-83566000D02*
X132606000Y-88918000D01*
X155847000Y-88918000D02*
X159766000Y-92837000D01*
%TO.N,/Counter & Bar Graph/OUT_16*%
X134874000Y-96012000D02*
X135153400Y-95732600D01*
X154330400Y-95732600D02*
X157226000Y-92837000D01*
X134874000Y-97663000D02*
X134874000Y-96012000D01*
X135153400Y-95732600D02*
X154330400Y-95732600D01*
%TO.N,/Counter & Bar Graph/OUT_17*%
X178308000Y-84963000D02*
X178308000Y-73787000D01*
X132334000Y-96012000D02*
X133063400Y-95282600D01*
X173650000Y-90283200D02*
X173650000Y-89621000D01*
X178308000Y-73787000D02*
X180340000Y-71755000D01*
X152240400Y-95282600D02*
X154686000Y-92837000D01*
X132334000Y-97663000D02*
X132334000Y-96012000D01*
X173650000Y-89621000D02*
X178308000Y-84963000D01*
X133063400Y-95282600D02*
X152240400Y-95282600D01*
%TO.N,/Counter & Bar Graph/OUT_18*%
X130719400Y-94832600D02*
X150150400Y-94832600D01*
X129794000Y-97663000D02*
X129794000Y-95758000D01*
X129794000Y-95758000D02*
X130719400Y-94832600D01*
X150150400Y-94832600D02*
X152146000Y-92837000D01*
%TO.N,/Counter & Bar Graph/OUT_00*%
X134493000Y-57531000D02*
X134493000Y-59309000D01*
X203962000Y-92837000D02*
X203962000Y-88569800D01*
X136202847Y-54170153D02*
X136202847Y-55821153D01*
X136202847Y-55821153D02*
X134493000Y-57531000D01*
%TO.N,/Counter & Bar Graph/OUT_01*%
X133731000Y-54356000D02*
X133731000Y-57531000D01*
X201422000Y-92837000D02*
X201422000Y-88188800D01*
X133731000Y-57531000D02*
X131953000Y-59309000D01*
%TO.N,/Counter & Bar Graph/OUT_02*%
X198882000Y-92837000D02*
X198882000Y-88188800D01*
%TO.N,/Counter & Bar Graph/OUT_03*%
X176467298Y-57462300D02*
X194632700Y-57462300D01*
X129032000Y-57150000D02*
X132080000Y-57150000D01*
X194632700Y-57462300D02*
X195580000Y-56515000D01*
X196342000Y-92837000D02*
X196342000Y-88188800D01*
X175620998Y-56616000D02*
X176467298Y-57462300D01*
X126873000Y-59309000D02*
X129032000Y-57150000D01*
%TO.N,/Counter & Bar Graph/OUT_04*%
X146177000Y-51548507D02*
X143189493Y-48561000D01*
X194106800Y-59922700D02*
X182520300Y-59922700D01*
X182245300Y-60197700D02*
X179761219Y-60197700D01*
X179761219Y-60197700D02*
X178189919Y-61769000D01*
X194739995Y-70807700D02*
X192913000Y-72634695D01*
X146177000Y-56896000D02*
X146177000Y-51548507D01*
X136826000Y-48561000D02*
X134620000Y-46355000D01*
X192913000Y-72634695D02*
X192913000Y-91948000D01*
X198501000Y-60579000D02*
X198501000Y-68279085D01*
X178189919Y-61769000D02*
X151050000Y-61769000D01*
X195972385Y-70807700D02*
X194739995Y-70807700D01*
X198501000Y-68279085D02*
X195972385Y-70807700D01*
X143189493Y-48561000D02*
X136826000Y-48561000D01*
X196977000Y-59055000D02*
X198501000Y-60579000D01*
X151050000Y-61769000D02*
X146177000Y-56896000D01*
X182520300Y-59922700D02*
X182245300Y-60197700D01*
X192913000Y-91948000D02*
X193802000Y-92837000D01*
%TO.N,/Counter & Bar Graph/OUT_05*%
X145542000Y-51549903D02*
X143003097Y-49011000D01*
X191135000Y-92710000D02*
X191262000Y-92837000D01*
X178376315Y-62219000D02*
X150738000Y-62219000D01*
X193286500Y-60647700D02*
X179947615Y-60647700D01*
X194132200Y-61493400D02*
X193286500Y-60647700D01*
X197728000Y-62346000D02*
X197728000Y-67321000D01*
X193423492Y-68072300D02*
X191135000Y-70360792D01*
X145542000Y-57023000D02*
X145542000Y-51549903D01*
X143003097Y-49011000D02*
X134736000Y-49011000D01*
X197728000Y-67321000D02*
X196976700Y-68072300D01*
X134736000Y-49011000D02*
X132080000Y-46355000D01*
X179947615Y-60647700D02*
X178376315Y-62219000D01*
X191135000Y-70360792D02*
X191135000Y-92710000D01*
X196976700Y-68072300D02*
X193423492Y-68072300D01*
X196977000Y-61595000D02*
X197728000Y-62346000D01*
X150738000Y-62219000D02*
X145542000Y-57023000D01*
%TO.N,/Counter & Bar Graph/OUT_06*%
X142816701Y-49461000D02*
X132646000Y-49461000D01*
X132646000Y-49461000D02*
X129540000Y-46355000D01*
X129540000Y-46609000D02*
X129540000Y-46355000D01*
X145034000Y-51678299D02*
X142816701Y-49461000D01*
X194056000Y-62611000D02*
X181160300Y-62611000D01*
X181102300Y-62669000D02*
X150426000Y-62669000D01*
X181160300Y-62611000D02*
X181102300Y-62669000D01*
X197003000Y-64135000D02*
X196977000Y-64161000D01*
X188722000Y-72137396D02*
X188722000Y-92837000D01*
X150426000Y-62669000D02*
X145034000Y-57277000D01*
X145034000Y-57277000D02*
X145034000Y-51678299D01*
X196537700Y-67622300D02*
X193237096Y-67622300D01*
X193237096Y-67622300D02*
X188722000Y-72137396D01*
X196977000Y-67183000D02*
X196537700Y-67622300D01*
X196977000Y-64161000D02*
X196977000Y-67183000D01*
%TO.N,/Counter & Bar Graph/OUT_07*%
X181844349Y-63607349D02*
X181356000Y-63119000D01*
X181356000Y-63119000D02*
X150114000Y-63119000D01*
X130556000Y-49911000D02*
X127000000Y-46355000D01*
X144362000Y-51642695D02*
X142630305Y-49911000D01*
X150114000Y-63119000D02*
X144362000Y-57367000D01*
X186182000Y-74041000D02*
X186182000Y-92837000D01*
X193548000Y-66675000D02*
X186182000Y-74041000D01*
X193970599Y-63607349D02*
X181844349Y-63607349D01*
X144362000Y-57367000D02*
X144362000Y-51642695D01*
X195580000Y-66675000D02*
X193548000Y-66675000D01*
X142630305Y-49911000D02*
X130556000Y-49911000D01*
%TO.N,/Counter & Bar Graph/OUT_08*%
X136144000Y-72771000D02*
X134874000Y-71501000D01*
X146330500Y-71882000D02*
X146330500Y-72490500D01*
X179832000Y-89027000D02*
X183642000Y-92837000D01*
X146050000Y-72771000D02*
X136144000Y-72771000D01*
X146330500Y-72490500D02*
X146050000Y-72771000D01*
X179832000Y-78867000D02*
X179832000Y-89027000D01*
%TO.N,/Counter & Bar Graph/OUT_09*%
X134493000Y-73660000D02*
X132334000Y-71501000D01*
X143383000Y-73660000D02*
X134493000Y-73660000D01*
%TO.N,Net-(D7-K)*%
X215900000Y-132080000D02*
X211325000Y-132080000D01*
X211325000Y-132080000D02*
X210053000Y-133352000D01*
%TO.N,Net-(SW1-NO_1)*%
X157220000Y-120570000D02*
X165670000Y-129020000D01*
X158670000Y-130150000D02*
X158390000Y-130430000D01*
X165670000Y-130150000D02*
X158670000Y-130150000D01*
X157220000Y-120050000D02*
X157220000Y-120570000D01*
X165670000Y-130150000D02*
X172170000Y-130150000D01*
X165670000Y-129020000D02*
X165670000Y-130150000D01*
%TO.N,unconnected-(RV1-Pad6)*%
X49534000Y-114360000D02*
X52528000Y-114360000D01*
X49531000Y-114363000D02*
X49534000Y-114360000D01*
X52528000Y-114360000D02*
X52531000Y-114363000D01*
%TD*%
M02*
