%TF.GenerationSoftware,KiCad,Pcbnew,7.0.10*%
%TF.CreationDate,2024-03-21T10:58:21-07:00*%
%TF.ProjectId,cpu,6370752e-6b69-4636-9164-5f7063625858,1.1*%
%TF.SameCoordinates,Original*%
%TF.FileFunction,Soldermask,Bot*%
%TF.FilePolarity,Negative*%
%FSLAX46Y46*%
G04 Gerber Fmt 4.6, Leading zero omitted, Abs format (unit mm)*
G04 Created by KiCad (PCBNEW 7.0.10) date 2024-03-21 10:58:21*
%MOMM*%
%LPD*%
G01*
G04 APERTURE LIST*
%ADD10C,1.600000*%
%ADD11C,1.300000*%
%ADD12R,1.600000X1.600000*%
%ADD13O,1.600000X1.600000*%
%ADD14C,1.320800*%
%ADD15R,1.320800X1.320800*%
%ADD16C,2.700000*%
%ADD17C,1.244600*%
%ADD18O,2.204000X1.204000*%
%ADD19R,1.700000X1.700000*%
%ADD20C,1.700000*%
%ADD21R,1.800000X1.800000*%
%ADD22C,1.800000*%
%ADD23R,1.200000X1.200000*%
%ADD24C,1.200000*%
%ADD25R,1.508000X1.508000*%
%ADD26C,1.508000*%
%ADD27O,1.700000X1.700000*%
%ADD28C,2.000000*%
G04 APERTURE END LIST*
D10*
%TO.C,C6*%
X215347000Y-111508000D03*
X210347000Y-111508000D03*
%TD*%
D11*
%TO.C,SW1*%
X154390000Y-130430000D03*
X156390000Y-130430000D03*
X158390000Y-130430000D03*
X154390000Y-125430000D03*
X156390000Y-125430000D03*
X158390000Y-125430000D03*
%TD*%
D12*
%TO.C,U8*%
X139954000Y-90043000D03*
D13*
X137414000Y-90043000D03*
X134874000Y-90043000D03*
X132334000Y-90043000D03*
X129794000Y-90043000D03*
X127254000Y-90043000D03*
X124714000Y-90043000D03*
X122174000Y-90043000D03*
X122174000Y-97663000D03*
X124714000Y-97663000D03*
X127254000Y-97663000D03*
X129794000Y-97663000D03*
X132334000Y-97663000D03*
X134874000Y-97663000D03*
X137414000Y-97663000D03*
X139954000Y-97663000D03*
%TD*%
D10*
%TO.C,R5*%
X132486400Y-108254800D03*
D13*
X124866400Y-108254800D03*
%TD*%
D12*
%TO.C,U6*%
X139954000Y-63881000D03*
D13*
X137414000Y-63881000D03*
X134874000Y-63881000D03*
X132334000Y-63881000D03*
X129794000Y-63881000D03*
X127254000Y-63881000D03*
X124714000Y-63881000D03*
X122174000Y-63881000D03*
X122174000Y-71501000D03*
X124714000Y-71501000D03*
X127254000Y-71501000D03*
X129794000Y-71501000D03*
X132334000Y-71501000D03*
X134874000Y-71501000D03*
X137414000Y-71501000D03*
X139954000Y-71501000D03*
%TD*%
D10*
%TO.C,R11*%
X210053000Y-127764000D03*
D13*
X202433000Y-127764000D03*
%TD*%
D10*
%TO.C,R3*%
X164840000Y-120050000D03*
D13*
X157220000Y-120050000D03*
%TD*%
D14*
%TO.C,RV2*%
X55245000Y-31750000D03*
D15*
X57785000Y-34290000D03*
X60325000Y-31750000D03*
%TD*%
D16*
%TO.C,H3*%
X46640000Y-140180000D03*
%TD*%
D10*
%TO.C,R8*%
X122080000Y-120430000D03*
D13*
X129700000Y-120430000D03*
%TD*%
D17*
%TO.C,U10*%
X216408000Y-76962000D03*
X216408000Y-74422000D03*
X216408000Y-71882000D03*
X216408000Y-69342000D03*
X216408000Y-66802000D03*
X216408000Y-64262000D03*
X216408000Y-61722000D03*
X216408000Y-59182000D03*
X216408000Y-56642000D03*
X216408000Y-54102000D03*
X216408000Y-51562000D03*
X216408000Y-49022000D03*
X216408000Y-46482000D03*
X216408000Y-43942000D03*
X216408000Y-41402000D03*
X216408000Y-38862000D03*
X201168000Y-38862000D03*
X201168000Y-41402000D03*
X201168000Y-43942000D03*
X201168000Y-46482000D03*
X201168000Y-49022000D03*
X201168000Y-51562000D03*
X201168000Y-54102000D03*
X201168000Y-56642000D03*
X201168000Y-59182000D03*
X201168000Y-61722000D03*
X201168000Y-64262000D03*
X201168000Y-66802000D03*
X201168000Y-69342000D03*
X201168000Y-71882000D03*
X201168000Y-74422000D03*
X201168000Y-76962000D03*
%TD*%
D18*
%TO.C,J2*%
X214884000Y-126492000D03*
X214884000Y-117852000D03*
X218684000Y-126492000D03*
X218684000Y-117852000D03*
%TD*%
D10*
%TO.C,R2*%
X92075000Y-127000000D03*
D13*
X84455000Y-127000000D03*
%TD*%
D12*
%TO.C,RN3*%
X174752000Y-76454000D03*
D13*
X172212000Y-76454000D03*
X169672000Y-76454000D03*
X167132000Y-76454000D03*
X164592000Y-76454000D03*
X162052000Y-76454000D03*
X159512000Y-76454000D03*
X156972000Y-76454000D03*
X154432000Y-76454000D03*
X151892000Y-76454000D03*
X149352000Y-76454000D03*
%TD*%
D12*
%TO.C,U2*%
X129032000Y-132461000D03*
D13*
X131572000Y-132461000D03*
X134112000Y-132461000D03*
X136652000Y-132461000D03*
X139192000Y-132461000D03*
X141732000Y-132461000D03*
X144272000Y-132461000D03*
X144272000Y-124841000D03*
X141732000Y-124841000D03*
X139192000Y-124841000D03*
X136652000Y-124841000D03*
X134112000Y-124841000D03*
X131572000Y-124841000D03*
X129032000Y-124841000D03*
%TD*%
D19*
%TO.C,D4*%
X172466000Y-92837000D03*
D20*
X169926000Y-92837000D03*
X167386000Y-92837000D03*
X164846000Y-92837000D03*
X162306000Y-92837000D03*
X159766000Y-92837000D03*
X157226000Y-92837000D03*
X154686000Y-92837000D03*
X152146000Y-92837000D03*
X149606000Y-92837000D03*
X149606000Y-100457000D03*
X152146000Y-100457000D03*
X154686000Y-100457000D03*
X157226000Y-100457000D03*
X159766000Y-100457000D03*
X162306000Y-100457000D03*
X164846000Y-100457000D03*
X167386000Y-100457000D03*
X169926000Y-100457000D03*
X172466000Y-100457000D03*
%TD*%
D21*
%TO.C,D1*%
X79300000Y-127935000D03*
D22*
X76760000Y-127935000D03*
%TD*%
D12*
%TO.C,U4*%
X139700000Y-38735000D03*
D13*
X137160000Y-38735000D03*
X134620000Y-38735000D03*
X132080000Y-38735000D03*
X129540000Y-38735000D03*
X127000000Y-38735000D03*
X124460000Y-38735000D03*
X121920000Y-38735000D03*
X121920000Y-46355000D03*
X124460000Y-46355000D03*
X127000000Y-46355000D03*
X129540000Y-46355000D03*
X132080000Y-46355000D03*
X134620000Y-46355000D03*
X137160000Y-46355000D03*
X139700000Y-46355000D03*
%TD*%
D16*
%TO.C,H4*%
X216890000Y-140130000D03*
%TD*%
D21*
%TO.C,D2*%
X215900000Y-101351000D03*
D22*
X215900000Y-98811000D03*
%TD*%
D12*
%TO.C,U1*%
X61976000Y-131735000D03*
D13*
X64516000Y-131735000D03*
X67056000Y-131735000D03*
X69596000Y-131735000D03*
X69596000Y-124115000D03*
X67056000Y-124115000D03*
X64516000Y-124115000D03*
X61976000Y-124115000D03*
%TD*%
D16*
%TO.C,H1*%
X46570000Y-30100000D03*
%TD*%
D10*
%TO.C,R7*%
X215900000Y-92710000D03*
D13*
X215900000Y-85090000D03*
%TD*%
D12*
%TO.C,U7*%
X139954000Y-75946000D03*
D13*
X137414000Y-75946000D03*
X134874000Y-75946000D03*
X132334000Y-75946000D03*
X129794000Y-75946000D03*
X127254000Y-75946000D03*
X124714000Y-75946000D03*
X122174000Y-75946000D03*
X122174000Y-83566000D03*
X124714000Y-83566000D03*
X127254000Y-83566000D03*
X129794000Y-83566000D03*
X132334000Y-83566000D03*
X134874000Y-83566000D03*
X137414000Y-83566000D03*
X139954000Y-83566000D03*
%TD*%
D12*
%TO.C,RN2*%
X206742000Y-104267000D03*
D13*
X204202000Y-104267000D03*
X201662000Y-104267000D03*
X199122000Y-104267000D03*
X196582000Y-104267000D03*
X194042000Y-104267000D03*
X191502000Y-104267000D03*
X188962000Y-104267000D03*
X186422000Y-104267000D03*
X183882000Y-104267000D03*
X181342000Y-104267000D03*
%TD*%
D23*
%TO.C,C3*%
X116332000Y-136525000D03*
D24*
X114332000Y-136525000D03*
%TD*%
D10*
%TO.C,R1*%
X75490000Y-136480000D03*
D13*
X67870000Y-136480000D03*
%TD*%
D25*
%TO.C,S1*%
X56550000Y-130230000D03*
D26*
X50050000Y-130230000D03*
X56550000Y-125730000D03*
X50050000Y-125730000D03*
%TD*%
D19*
%TO.C,D5*%
X203962000Y-92837000D03*
D20*
X201422000Y-92837000D03*
X198882000Y-92837000D03*
X196342000Y-92837000D03*
X193802000Y-92837000D03*
X191262000Y-92837000D03*
X188722000Y-92837000D03*
X186182000Y-92837000D03*
X183642000Y-92837000D03*
X181102000Y-92837000D03*
X181102000Y-100457000D03*
X183642000Y-100457000D03*
X186182000Y-100457000D03*
X188722000Y-100457000D03*
X191262000Y-100457000D03*
X193802000Y-100457000D03*
X196342000Y-100457000D03*
X198882000Y-100457000D03*
X201422000Y-100457000D03*
X203962000Y-100457000D03*
%TD*%
D10*
%TO.C,C2*%
X73210000Y-123380000D03*
X73210000Y-128380000D03*
%TD*%
%TO.C,R4*%
X124870000Y-112950000D03*
D13*
X132490000Y-112950000D03*
%TD*%
D10*
%TO.C,R9*%
X109220000Y-123825000D03*
D13*
X101600000Y-123825000D03*
%TD*%
D19*
%TO.C,J1*%
X58547000Y-41275000D03*
D27*
X61087000Y-41275000D03*
X63627000Y-41275000D03*
X66167000Y-41275000D03*
X68707000Y-41275000D03*
X71247000Y-41275000D03*
X73787000Y-41275000D03*
X76327000Y-41275000D03*
X78867000Y-41275000D03*
X81407000Y-41275000D03*
X83947000Y-41275000D03*
X86487000Y-41275000D03*
X89027000Y-41275000D03*
X91567000Y-41275000D03*
X94107000Y-41275000D03*
X96647000Y-41275000D03*
%TD*%
D21*
%TO.C,D3*%
X104775000Y-128661000D03*
D22*
X107315000Y-128661000D03*
%TD*%
D14*
%TO.C,RV3*%
X68580000Y-31714616D03*
D15*
X71120000Y-34254616D03*
X73660000Y-31714616D03*
%TD*%
D10*
%TO.C,C4*%
X122440000Y-136840000D03*
X127440000Y-136840000D03*
%TD*%
D12*
%TO.C,RN1*%
X175260000Y-104267000D03*
D13*
X172720000Y-104267000D03*
X170180000Y-104267000D03*
X167640000Y-104267000D03*
X165100000Y-104267000D03*
X162560000Y-104267000D03*
X160020000Y-104267000D03*
X157480000Y-104267000D03*
X154940000Y-104267000D03*
X152400000Y-104267000D03*
X149860000Y-104267000D03*
%TD*%
D23*
%TO.C,C5*%
X133355000Y-120533000D03*
D24*
X135355000Y-120533000D03*
%TD*%
D12*
%TO.C,U3*%
X113745000Y-132471000D03*
D13*
X116285000Y-132471000D03*
X118825000Y-132471000D03*
X121365000Y-132471000D03*
X121365000Y-124851000D03*
X118825000Y-124851000D03*
X116285000Y-124851000D03*
X113745000Y-124851000D03*
%TD*%
D19*
%TO.C,D6*%
X172212000Y-65151000D03*
D20*
X169672000Y-65151000D03*
X167132000Y-65151000D03*
X164592000Y-65151000D03*
X162052000Y-65151000D03*
X159512000Y-65151000D03*
X156972000Y-65151000D03*
X154432000Y-65151000D03*
X151892000Y-65151000D03*
X149352000Y-65151000D03*
X149352000Y-72771000D03*
X151892000Y-72771000D03*
X154432000Y-72771000D03*
X156972000Y-72771000D03*
X159512000Y-72771000D03*
X162052000Y-72771000D03*
X164592000Y-72771000D03*
X167132000Y-72771000D03*
X169672000Y-72771000D03*
X172212000Y-72771000D03*
%TD*%
D16*
%TO.C,H2*%
X216830000Y-30130000D03*
%TD*%
D10*
%TO.C,R6*%
X202433000Y-133352000D03*
D13*
X210053000Y-133352000D03*
%TD*%
D21*
%TO.C,D7*%
X215900000Y-132080000D03*
D22*
X218440000Y-132080000D03*
%TD*%
D25*
%TO.C,S2*%
X165670000Y-125650000D03*
D26*
X172170000Y-125650000D03*
X165670000Y-130150000D03*
X172170000Y-130150000D03*
%TD*%
D17*
%TO.C,U9*%
X195580000Y-76835000D03*
X195580000Y-74295000D03*
X195580000Y-71755000D03*
X195580000Y-69215000D03*
X195580000Y-66675000D03*
X195580000Y-64135000D03*
X195580000Y-61595000D03*
X195580000Y-59055000D03*
X195580000Y-56515000D03*
X195580000Y-53975000D03*
X195580000Y-51435000D03*
X195580000Y-48895000D03*
X195580000Y-46355000D03*
X195580000Y-43815000D03*
X195580000Y-41275000D03*
X195580000Y-38735000D03*
X180340000Y-38735000D03*
X180340000Y-41275000D03*
X180340000Y-43815000D03*
X180340000Y-46355000D03*
X180340000Y-48895000D03*
X180340000Y-51435000D03*
X180340000Y-53975000D03*
X180340000Y-56515000D03*
X180340000Y-59055000D03*
X180340000Y-61595000D03*
X180340000Y-64135000D03*
X180340000Y-66675000D03*
X180340000Y-69215000D03*
X180340000Y-71755000D03*
X180340000Y-74295000D03*
X180340000Y-76835000D03*
%TD*%
D11*
%TO.C,RV1*%
X121031000Y-106863000D03*
X118031000Y-106863000D03*
X48031000Y-106863000D03*
X51031000Y-106863000D03*
X119531000Y-114363000D03*
X116531000Y-114363000D03*
X49531000Y-114363000D03*
X52531000Y-114363000D03*
D28*
X73531000Y-114813000D03*
X90531000Y-106413000D03*
%TD*%
D10*
%TO.C,R10*%
X210053000Y-117096000D03*
D13*
X202433000Y-117096000D03*
%TD*%
D23*
%TO.C,C1*%
X61722000Y-136053000D03*
D24*
X59722000Y-136053000D03*
%TD*%
D12*
%TO.C,U5*%
X139573000Y-51689000D03*
D13*
X137033000Y-51689000D03*
X134493000Y-51689000D03*
X131953000Y-51689000D03*
X129413000Y-51689000D03*
X126873000Y-51689000D03*
X124333000Y-51689000D03*
X121793000Y-51689000D03*
X121793000Y-59309000D03*
X124333000Y-59309000D03*
X126873000Y-59309000D03*
X129413000Y-59309000D03*
X131953000Y-59309000D03*
X134493000Y-59309000D03*
X137033000Y-59309000D03*
X139573000Y-59309000D03*
%TD*%
M02*
